<?xml version="1.0" encoding="utf-8"?>
<!-- Generator: Adobe Illustrator 16.0.3, SVG Export Plug-In . SVG Version: 6.00 Build 0)  -->
<!DOCTYPE svg PUBLIC "-//W3C//DTD SVG 1.1//EN" "http://www.w3.org/Graphics/SVG/1.1/DTD/svg11.dtd">
<svg version="1.1" id="图层_1" xmlns="http://www.w3.org/2000/svg" xmlns:xlink="http://www.w3.org/1999/xlink" x="0px" y="0px"
	 width="91.999px" height="81.282px" viewBox="0 0 91.999 81.282" enable-background="new 0 0 91.999 81.282" xml:space="preserve">
<g>
	<path fill="#FFFFFF" d="M25.999,78.282c-1.072,0-2.063-0.572-2.598-1.5l-20-34.641c-0.536-0.928-0.536-2.072,0-3l20-34.642
		C23.937,3.572,24.927,3,25.999,3h40c1.072,0,2.063,0.572,2.598,1.5l20,34.642c0.536,0.928,0.536,2.072,0,3l-20,34.641
		c-0.535,0.928-1.525,1.5-2.598,1.5H25.999z"/>
	<path fill="#8F8F8F" d="M65.999,6l20,34.642l-20,34.641h-40l-20-34.641L25.999,6H65.999 M65.999,0h-40
		c-2.144,0-4.124,1.144-5.196,3l-20,34.642c-1.071,1.856-1.071,4.144,0,6l20,34.641c1.072,1.856,3.053,3,5.196,3h40
		c2.144,0,4.124-1.144,5.196-3l20-34.641c1.071-1.856,1.071-4.144,0-6L71.195,3C70.123,1.144,68.143,0,65.999,0L65.999,0z"/>
</g>
<g>
	<path fill="#8F8F8F" d="M67.214,55.586c-17.061,0-21.391-7.356-24.869-13.268c-3.092-5.252-5.533-9.4-18.216-9.4
		c-2.209,0-4-1.791-4-4s1.791-4,4-4c17.257,0,21.611,7.398,25.11,13.343c3.066,5.21,5.488,9.326,17.975,9.326c2.209,0,4,1.791,4,4
		S69.423,55.586,67.214,55.586z"/>
</g>
<g>
	<path fill="#FFFFFF" d="M24.129,60.365c-4.418,0-8-3.582-8-8s3.582-8,8-8c10.396,0,11.856-2.483,14.769-7.429
		c4.726-8.031,10.448-15.239,28.316-15.239c4.418,0,8,3.582,8,8s-3.582,8-8,8c-10.199,0-11.646,2.458-14.527,7.355
		C47.937,53.121,42.179,60.365,24.129,60.365z"/>
</g>
<g>
	<path fill="#8F8F8F" d="M24.129,56.365c-2.209,0-4-1.791-4-4s1.791-4,4-4c12.683,0,15.124-4.148,18.216-9.4
		c3.479-5.911,7.809-13.268,24.869-13.268c2.209,0,4,1.791,4,4s-1.791,4-4,4c-12.486,0-14.908,4.115-17.975,9.326
		C45.74,48.967,41.386,56.365,24.129,56.365z"/>
</g>
</svg>
