<?xml version="1.0" encoding="utf-8"?>
<!-- Generator: Adobe Illustrator 16.0.3, SVG Export Plug-In . SVG Version: 6.00 Build 0)  -->
<!DOCTYPE svg PUBLIC "-//W3C//DTD SVG 1.1//EN" "http://www.w3.org/Graphics/SVG/1.1/DTD/svg11.dtd">
<svg version="1.1" id="launch" xmlns="http://www.w3.org/2000/svg" xmlns:xlink="http://www.w3.org/1999/xlink" x="0px" y="0px"
	 width="142.382px" height="141.019px" viewBox="0 0 142.382 141.019" enable-background="new 0 0 142.382 141.019"
	 xml:space="preserve">
<path fill="#474F59" d="M69.999,141.019C31.34,141.019,0,109.678,0,71.019C0,32.356,31.34,1.017,69.999,1.017
	c38.66,0,70.002,31.34,70.002,70.002C140.001,109.678,108.659,141.019,69.999,141.019"/>
<path fill="#30363D" d="M69.999,122.858c-28.63,0-51.839-23.21-51.839-51.84c0-28.633,23.209-51.841,51.839-51.841
	s51.841,23.208,51.841,51.841C121.84,99.648,98.629,122.858,69.999,122.858"/>
<polygon fill="#CCCCCC" points="140.645,36.489 140.398,37.983 138.906,38.228 140.398,38.473 140.645,39.968 140.89,38.473 
	142.382,38.228 140.89,37.983 "/>
<path fill="#5E979E" d="M66.02,107.856c22.332,0,40.499-18.166,40.499-40.498c0-22.33-18.167-40.501-40.499-40.501"/>
<path fill="#6FB4BD" d="M66.02,26.857c-22.331,0-40.504,18.171-40.504,40.501c0,22.332,18.173,40.498,40.504,40.498"/>
<path fill="#CDD4D7" d="M104.764,78.366c-0.535,0.016-1.226,0.266-1.238,0.445c-0.01,0.187-0.745,0.514-0.987,0.613
	c-0.244,0.097-0.715,0.85-0.818,1.097c-0.102,0.247-0.704,0.173-0.926,0.274c-0.221,0.098-0.678,0.465-0.682,0.687
	c-0.001,0.22-0.123,0.196-0.275-0.056l-0.291,0.308L99.2,82.117c-0.197,0.624-0.858,1.409-1.082,1.478
	c-0.228,0.062-0.267,1.156-0.267,1.592c0,0.445,0.168,0.988,0.38,1.209l0.045,0.352l0.076,0.695
	c-0.121,0.537,0.289,1.018,0.407,1.113c0.118,0.092,1.12-0.178,1.504-0.273c0.157-0.037,0.356-0.125,0.546-0.223
	c1.789-2.993,3.195-6.242,4.168-9.672C104.902,78.373,104.829,78.365,104.764,78.366"/>
<path fill="#CDD4D7" d="M37.892,79.403c-0.056,0.109,0.665,0.855,0.948,1.105c0.281,0.258,0.876,1.472,0.999,1.871
	c0.12,0.397,0.048,1.049,0.009,1.203c-0.035,0.154,0.136,0.492,0.164,0.631c0.026,0.141-0.249,1.334-0.144,1.813
	c0.105,0.48-0.56,1.975-0.544,2.715c0.015,0.744,0.351,1.712,0.489,1.641c0.133-0.074,0.18,0.676-0.047,0.764
	c-0.227,0.09-0.489,0.683-0.361,0.712c0.126,0.03-0.012,0.614,0.026,0.849c0.032,0.232,0.229,1.773,0.272,2.157
	c0.044,0.386,0.59,1.321,0.707,1.64c0.115,0.318,0.232,0.92,0.276,1.01c0.045,0.095,0.102,0.188,0.109,0.191
	c0.011,0.004,0.45,0.167,0.579,0.264c0.132,0.098,0.996,0.037,1.28-0.022c0.283-0.058,0.023-0.315-0.106-0.457
	c-0.128-0.142-0.241-0.825-0.386-0.896c-0.145-0.066-0.21-0.94-0.081-1.131c0.129-0.195,0.647-0.502,0.704-0.664
	c0.056-0.162,0.072-0.922-0.068-1.025c-0.139-0.104,0.042-1.025-0.063-1.484c-0.106-0.457,0.795-0.873,0.849-1.238
	c0.049-0.36,1.026-0.75,1.243-0.931c0.222-0.186,0.416-1.223,0.31-1.446c-0.108-0.224,0.358-0.405,0.566-0.405
	c0.206,0,0.439-0.147,0.523-0.147c0.078-0.004,0.326-0.463,0.457-0.568c0.135-0.105,0.409-1.205,0.649-1.385
	c0.244-0.182,0.444-0.845,0.444-1.037c0-0.195,0.369-0.775,0.491-0.949s1.029-0.59,1.191-0.654c0.164-0.066,0.412-1.527,0.474-2.053
	c0.059-0.525,0.335-1.227,0.356-1.399c0.017-0.17,0.309-0.319,0.362-0.374c0.055-0.055,0.272-0.723,0.412-0.877
	c0.14-0.152,0.642-0.79,0.653-0.933c0.014-0.142,0.089-0.507,0.172-0.813l-0.003-0.358l0.004-0.567
	c-0.159-0.438-0.647-0.991-0.772-0.868c-0.125,0.12-0.687-0.39-0.975-0.498c-0.287-0.107-1.003-0.195-1.182-0.195
	c-0.182,0-0.808-0.513-1.09-0.602c-0.28-0.089-0.994-0.224-1.124-0.311c-0.132-0.082-0.308-1.146-0.883-1.494
	c-0.579-0.35-1.589-1.159-1.699-1.458c-0.111-0.298-1.219-0.923-1.562-1.111c-0.34-0.189-0.858-0.234-0.922-0.165
	c-0.067,0.063-0.492-0.576-0.712-0.761c-0.222-0.18-0.886-0.33-0.915-0.17c-0.03,0.165-0.47,0.079-0.573-0.06
	c-0.103-0.136-0.446,0.056-0.607,0.109c-0.16,0.052-0.71,0.894-0.96,1.095c-0.255,0.201-0.557-0.187-0.723-0.259
	c-0.168-0.072-0.804,0.124-0.977,0.248c-0.172,0.123-0.572-0.89-0.479-1.356c0.093-0.468-0.417-1.396-0.814-1.417
	c-0.391-0.024-0.514-0.999-0.436-1.359c0.078-0.358-0.714-0.585-0.911-0.607c-0.201-0.027-0.692,0.479-0.776,0.721
	c-0.086,0.244-1.877-0.33-1.664-1.403c0.207-1.076,1.057-2.186,1.269-2.32c0.212-0.128,1.364-0.194,1.618-0.049
	c0.255,0.148,0.485-0.003,0.528-0.067c0.044-0.069,0.984,0.008,1.263,0.124c0.28,0.114,0.684,1.199,0.973,1.332
	c0.295,0.136,0.398-0.7,0.444-0.905c0.05-0.202-0.141-0.717-0.211-0.863c-0.071-0.145,0.467-1.461,0.909-1.684
	c0.435-0.226,0.901-0.958,0.862-1.087c-0.039-0.127,0.353-0.23,0.458-0.285c0.104-0.053-0.015-1.118,0.155-1.351
	c0.174-0.228,0.999-0.716,1.259-0.826c0.259-0.11,0.457-0.782,0.362-0.898c-0.094-0.121,0.676-0.775,1.077-0.902
	c0.397-0.123,0.742,0.229,0.643,0.286c0.08-0.046,0.631-0.329,0.867-0.483c0.274-0.184,0.003-0.682-0.175-0.83
	c-0.173-0.142-0.068-0.72,0.143-0.774c0.214-0.051,0.399-0.552,0.343-0.657c-0.055-0.11,0.878,0.085,1.234-0.179
	c0.354-0.265,0.1,0.634-0.158,0.996c-0.259,0.36,0.192,0.705,0.358,0.634c0.168-0.068,0.347,0.193,0.38,0.295
	c0.034,0.101,0.395-0.105,0.631-0.002c0.234,0.103,0.374-0.324,0.393-0.518c0.017-0.199-0.562-0.607-0.654-0.842
	c-0.091-0.234-0.129-1.607-0.143-1.89c-0.011-0.28-0.388-0.737-0.512-0.655c-0.119,0.08-0.366-0.73-0.563-0.906
	c-0.197-0.176-0.242-0.564-0.233-0.695c0.01-0.13-0.663-0.832-0.827-1.158c-0.161-0.325-0.387-0.258-0.403-0.109
	c-0.015,0.147-0.482,0.168-0.673,0.151c-0.195-0.019-0.354-0.762-0.354-1.043c0-0.279-0.865-0.327-1.009-0.555
	c-0.141-0.222-0.705-0.117-0.796-0.274c-0.092-0.157-0.592-0.301-0.688-0.243c-0.104,0.06-0.055,2.073-0.15,2.617
	c-0.096,0.542-0.557,1.02-0.726,1.008c-0.166-0.012-0.068,0.386,0.05,0.351c0.118-0.039-0.328,0.594-0.385,1.007
	c-0.059,0.411-0.478-0.019-0.546-0.393c-0.068-0.373-0.477-0.882-0.553-0.753c-0.078,0.128-0.364-0.154-0.483-0.074
	c-0.122,0.08-0.897-0.45-1.209-0.62c-0.311-0.166-0.488-1.125-0.667-1.208c-0.18-0.086-0.027-0.203-0.036-0.345
	c-0.004-0.147,0.605-0.705,0.791-0.926c0.184-0.222,0.853-1.092,1.121-1.28c0.266-0.189,0.472-0.686,0.427-0.779
	c-0.046-0.092,1.136-0.461,1.458-0.571c0.319-0.11,0.595-1.004,0.638-1.26c0.046-0.257-0.2-0.742-0.348-0.806
	c-0.149-0.064,0.447-0.086,0.644,0.012c0.2,0.098,0.807-0.18,1.049-0.053c0.239,0.131,0.726,0.418,1.081,0.639l-0.08,0.656
	l-0.14,1.113c-0.933,0.387-1.201,1.052-0.873,1.041c0.324-0.018,1.814,0.643,2.235,0.944c0.42,0.302,0.553-0.435,0.676-0.683
	c0.124-0.241,0.083-0.956-0.015-1.095c-0.103-0.143,0.484-0.093,0.649,0.067c0.167,0.156,0.36-0.164,0.486-0.222
	c0.128-0.056,0.191-0.668,0.257-0.792c0.071-0.123-0.276-0.248-0.288-0.397c-0.011-0.158-0.678-0.446-0.896-0.55
	c-0.219-0.103-0.27-0.566-0.16-0.646c0.104-0.081-0.074-0.667-0.183-0.862c-0.106-0.195-0.804-0.352-1.038-0.352
	c-0.233,0-0.474-0.542-0.607-0.619c-0.135-0.078-1.035-0.177-1.252-0.112c-0.223,0.066-0.628-0.636-1.003-0.421
	c-0.375,0.213-0.761-0.252-0.93-0.343c-0.172-0.091-1.05,0.847-1.039,1.509c0.009,0.663,0.339,1.303,0.478,1.323
	c0.138,0.017-0.031,0.615-0.186,0.787c-0.149,0.168-0.52-0.182-0.378-0.332c0.138-0.151-0.38-0.844-0.562-1.126
	c-0.126-0.203-0.583-0.382-0.892-0.506c-0.178,0.196-0.357,0.396-0.532,0.597c0.07,0.242,0.15,0.555,0.072,0.791
	c-0.131,0.404-0.468,0.465-0.489,0.29c-0.01-0.077-0.18-0.136-0.38-0.162c-4.905,5.884-8.17,13.174-9.106,21.168
	c0.194,0.225,0.417,0.487,0.477,0.677c0.11,0.356,0.727,0.589,0.843,0.662c0.115,0.071,0.159-0.68,0.074-0.876
	c-0.078-0.196,0.15-0.312,0.145-0.169c-0.007,0.144,0.582,0.805,0.775,1.045c0.192,0.239,0.392,1.784,0.579,2.117
	c0.183,0.331,1.965,1.016,2.542,1.137c0.571,0.123,1.296,0.764,1.411,0.95c0.108,0.185,0.871,0.278,1.034,0.35
	c0.166,0.077,0.559,0.594,0.721,0.702c0.159,0.109,0.288,0.416,0.288,0.497c0,0.08,1.008,0.463,1.252,0.731
	c0.244,0.271,0.646,0.196,0.722,0.084c0.077-0.114,0.276,0.534,0.38,0.758c0.102,0.224,0.128,0.774,0.048,0.864
	c-0.078,0.084-0.224,1.099-0.394,1.302c-0.172,0.203-0.528,1.672-0.452,1.963c0.08,0.293,0.55,0.894,0.754,0.983
	c0.205,0.087,0.118,0.401-0.042,0.425c-0.162,0.02-0.087,1.424,0.293,1.633C37.628,78.673,37.945,79.298,37.892,79.403"/>
<path fill="#CDD4D7" d="M42.659,54.736L42.659,54.736C42.646,54.741,42.645,54.742,42.659,54.736"/>
<path fill="#CDD4D7" d="M39.89,37.655c0.484-0.083,1.292-0.217,1.346-0.351c0.042-0.113,0.046-0.444-0.045-0.564
	c0.075,0.007,0.167,0.012,0.237,0.012c0.181,0,0.488-1.011,0.684-1.246c0.194-0.235,1.301-0.584,1.565-0.742
	c0.264-0.161,0.843-0.716,1.065-0.783c0.22-0.065,0.545-0.583,0.496-0.688c-0.049-0.104,0.752-0.587,1.053-0.719
	c0.304-0.128,0.46-0.483,0.347-0.497c-0.072-0.009-1.765,0.875-3.312,1.756c-1.769,1.201-3.431,2.543-4.983,3.999
	C38.825,37.798,39.573,37.709,39.89,37.655"/>
<path fill="#CDD4D7" d="M69.182,88.063c0.517-0.308,1.397-1.606,1.687-1.882c0.291-0.273,0.501-1.262,0.563-1.475
	c0.057-0.215,0.499-0.564,0.662-0.611c0.164-0.047,0.69-2.23,1.149-2.707c0.463-0.477,1.004-2.785,0.945-3.618
	c-0.061-0.826,0.295-2.408,0.404-2.79c0.111-0.381,0.689-1.055,0.869-1.193c0.178-0.143,1.289-1.791,1.649-2.379
	c0.357-0.591,0.702-1.888,0.634-2.192c-0.069-0.303-0.845-0.515-0.992-0.367c-0.141,0.151-0.873,0.275-1.104,0.275
	c-0.235,0-0.769-1.25-1.103-1.508c-0.329-0.256-0.631-1.688-0.821-1.958c-0.19-0.273-0.726-0.957-0.892-1.115
	c-0.168-0.158-0.195-0.916-0.234-1.124c-0.036-0.207,0.324,0.137,0.386,0.439c0.062,0.302,0.921,1.521,1.185,1.933
	c0.266,0.411,0.964,1.717,1.146,2.128c0.177,0.41,1.731,0.2,2.239-0.035c0.505-0.242,1.136-0.645,1.158-0.785
	c0.023-0.141,0.83-0.51,1.052-0.69c0.226-0.179,0.424-1.116,0.569-1.267c0.146-0.151-0.119-1.043-0.287-1.309
	c-0.168-0.269-0.973-0.479-1.137-0.375c-0.164,0.105-0.515-0.597-0.637-0.856c-0.123-0.261-0.74-0.575-0.809-0.754
	c-0.063-0.177,0.168-0.455,0.264-0.516c0.098-0.062,1.236,0.736,1.564,1.134c0.326,0.397,0.703,1.127,0.766,1.257
	c0.061,0.126,0.958,0.19,1.16,0.041c0.199-0.145,0.429-0.106,0.509,0.085l0.282-0.05l0.986-0.152
	c0.467,0.504,0.604,0.941,0.59,1.044c-0.008,0.097,0.289,0.508,0.479,0.551c0.19,0.046,0.331,0.69,0.388,0.85
	c0.06,0.16,0.619,1.126,0.736,1.532c0.116,0.407,0.596,1.201,0.71,1.413c0.113,0.214,0.208,0.829,0.208,0.997
	c0,0.167,0.36,0.499,0.586,0.483c0.223-0.015,0.676-1.429,0.782-1.955c0.104-0.525,0.467-0.958,0.569-0.958
	c0.104,0,0.185-0.298,0.185-0.409c0-0.112,0.574-0.098,0.625-0.244c0.047-0.142,0.218-1.077,0.42-1.217
	c0.206-0.145,0.929-0.617,1.183-0.706c0.254-0.088,0.902,0.471,1.049,0.733c0.144,0.26,0.277,0.925,0.22,1.033
	c-0.056,0.109,0.341,0.682,0.69,0.672c0.343-0.009,0.449,0.438,0.459,0.602c0.017,0.16,0.471,0.623,0.562,0.829
	c0.09,0.207,0.063,0.771,0.002,0.9c-0.063,0.128-0.019,0.868,0.047,1.074c0.065,0.209,1.13,1.285,1.526,1.612
	c0.4,0.326,0.587-0.667,0.382-0.976c-0.204-0.307-0.899-1.025-1.063-1.239c-0.16-0.216-0.187-1.077-0.127-1.318
	c0.059-0.24,0.606,0.135,0.834,0.308c0.228,0.173,0.525,0.563,0.533,0.692c0.008,0.131,1.432-0.668,1.48-1.534
	c0.05-0.868,0.525-1.842,0.57-2.07c0.047-0.23-0.142-0.542-0.261-0.55c-0.12-0.01,0.211-0.661,0.613-0.651
	c0.397,0.011,1.358-1.058,1.587-1.482c0.227-0.424,0.684-0.774,0.738-0.83c0.053-0.047,0.371-1.053,0.428-1.469
	c0.053-0.414-0.232-1.067-0.271-1.281c-0.031-0.212-0.375-0.708-0.465-0.864c-0.088-0.155-0.172-0.736-0.121-0.847
	c0.057-0.106,0.416-0.22,0.455-0.317c0.038-0.099,0.45-0.538,0.418-0.731c-0.029-0.195,0.256,0.251,0.444,0.411
	c0.188,0.159,0.396,1.191,0.628,1.306c0.23,0.113,1.178-1.094,1.057-1.875c-0.111-0.779,0.281-1.777,0.504-1.867
	c0.174-0.067,0.621-0.698,0.92-1.149c-2.08-6.004-5.526-11.369-9.974-15.722c-0.055,0.002-0.106,0.002-0.155-0.005l-0.346-0.074
	c-0.58-0.123-0.918-0.745-0.818-0.887c0.031-0.046,0.024-0.15-0.004-0.273c-0.326-0.292-0.656-0.579-0.994-0.862
	c-0.271-0.007-0.561,0-0.731-0.007c-0.351-0.016-1.103-0.262-1.237-0.397c-0.135-0.135-0.592,0.121-0.619,0.371
	c-0.028,0.253-0.821,0.369-0.896,0.56c-0.081,0.192-0.487,0.205-0.565,0.096c-0.08-0.106-0.813,0.26-1.181,0.314
	c-0.366,0.05-1.046,0.347-1.212,0.421c-0.163,0.072-0.552,0.45-0.615,0.608c-0.058,0.159-0.531,0.42-0.682,0.481
	c-0.15,0.059-0.117,0.742,0.076,0.841c0.193,0.092-0.362-0.083-0.606-0.21c-0.249-0.124-0.521,0.29-0.596,0.433
	c-0.078,0.143-0.304-0.084-0.293-0.288c0.009-0.204-0.604-0.369-0.687-0.206c-0.082,0.163-0.506-0.054-0.684-0.148
	c-0.176-0.093-0.939,0.702-1.221,0.988c-0.285,0.285-1.635,0.507-1.889,0.401c-0.252-0.108-0.502,0.596-0.285,0.644
	c0.215,0.043-0.549-0.035-0.967,0.005c-0.422,0.04-1.645,0.528-1.934,0.745c-0.292,0.22-0.527-0.047-0.527-0.215
	c0-0.167-0.465-0.321-0.604-0.368c-0.137-0.047-0.409,0.915-0.65,1.101c-0.242,0.186-0.533-0.752-1.102-0.905
	c-0.571-0.154-1.463-0.703-1.715-0.769c-0.252-0.068-0.762-0.601-0.902-0.751c-0.145-0.158-0.872-0.283-1.106-0.283
	c-0.236,0-0.988,0.432-1.192,0.602c-0.206,0.17-0.508,0.138-0.608,0.198c-0.104,0.063-0.955,0.897-1.284,1.16
	c-0.332,0.26-0.911,1.387-1.097,1.656c-0.191,0.266-0.461,0.318-0.573,0.323c-0.11,0.008-0.201,0.307-0.201,0.417
	c0,0.111-0.979,0.62-1.081,1.067c-0.105,0.444,0.095,1.461,0.095,1.822c0,0.362,0.364,1.077,0.635,1.089s0.132,0.612,0.059,0.78
	c-0.07,0.172,0.17,0.357,0.165,0.5c-0.01,0.144-0.689,0.346-0.901,0.426c-0.211,0.078-0.549,0.553-0.595,0.73
	c-0.038,0.153-0.694,0.262-0.907,0.471c0.053-0.149,0.127-0.357,0.186-0.473c0.124-0.237-0.048-0.652-0.151-0.736
	c-0.103-0.087-0.152-1.264-0.316-1.516c-0.165-0.253-0.578-0.679-0.679-0.765c-0.1-0.08,0.07-0.392,0.13-0.525
	c0.058-0.128-0.548-0.204-0.716-0.108c-0.166,0.097-0.255,1.262-0.326,1.581c-0.069,0.32,0.3,0.809,0.401,0.833
	c0.1,0.024,0.071,0.597-0.139,0.617c-0.215,0.02-0.411,0.858-0.302,1.049c0.113,0.191-0.15,0.565-0.277,0.654
	c-0.127,0.085,0.818,0.037,1.249,0.025c0.43-0.012,0.77,0.182,0.723,0.218c-0.045,0.037-0.823,0.15-0.964,0.335
	c-0.136,0.186-0.669,0.542-0.772,0.686c-0.102,0.139,0.176,0.455,0.402,0.439c0.222-0.011,0.479,0.777,0.653,0.924
	c0.175,0.146,0.111,0.554,0.035,0.669c-0.077,0.109-1.135-0.076-1.534,0.021c-0.404,0.099-0.908,0.949-0.942,1.267
	c-0.036,0.321,0.065,1.24,0.117,1.494c0.05,0.253,0.889,0.412,1.059,0.537c0.173,0.124,0.975,0.003,1.143,0.081
	c0.163,0.079,0.708-0.814,0.814-1.227c0.105-0.416,0.96-1.176,1.14-1.46c0.178-0.281,1.099-0.247,1.326-0.396
	c0.229-0.144,0.101,0.701,0.211,1.167c0.11,0.465,0.991,0.406,0.862-0.03c-0.128-0.437,0.085-0.628,0.122-0.47
	c0.036,0.159,0.886,0.504,1.047,0.748c0.159,0.249,0.114,0.769-0.073,0.762c-0.191-0.007-0.195,0.573,0.002,0.636
	c0.2,0.06,0.466-0.651,0.68-0.759c0.214-0.106,0.387-0.552,0.288-0.586c-0.098-0.033,0.18-0.431,0.302-0.299
	c0.12,0.132-0.453-0.867-0.815-1.23c-0.359-0.363-0.105-0.203,0.569,0.36l0.466,0.653c0.089,0.117,0.209,0.472,0.289,0.603
	L67.409,57c0.094,0.229,0.172,0.853,0.172,1.025c0,0.167,0.367,0.5,0.587,0.483c0.222-0.015,0.392,0.105,0.345,0.116
	c-0.045,0.006,0.146,0.44,0.367,0.451c0.221,0.006,0.317-0.561,0.095-0.573c-0.224-0.012-0.189-0.836-0.219-1.191
	c-0.022-0.36,0.161-0.65,0.237-0.65c0.077,0-0.008,0.732-0.002,0.902c0.002,0.17,0.096,0.504,0.201,0.742l0.227,0.173l0.512,0.395
	c0.733-0.217,1.716-0.051,1.679,0.098c-0.039,0.151,0.543,0.187,0.578-0.057c0.035-0.238,0.06,0.007,0.06,0.175
	c0,0.165-0.478,0.822-0.558,1.123c-0.083,0.302-1.776,0.098-2.503,0.041c-0.729-0.055-1.804,0.195-1.885,0.41
	c-0.082,0.22-1.219-0.5-1.739-0.718c-0.524-0.22-0.932-1.015-1.037-1.117c-0.111-0.106,0.087-0.363,0.039-0.519
	c-0.05-0.159-1.24-0.19-1.586-0.061c-0.348,0.126-2.131,0.316-2.552,0.499c-0.424,0.19-1.059-0.011-1.257-0.045
	c-0.197-0.035-0.668,0.546-0.909,0.652c-0.241,0.106-0.543,0.932-0.675,1.838l-0.326,0.631l-0.21,0.404
	c-0.588,0.447-1.24,1.944-1.432,2.244c-0.189,0.298-0.342,2.453-0.342,3.178c0,0.723,0.629,2.257,0.808,2.68
	c0.178,0.423,1.272,1.359,1.637,1.583c0.365,0.219,1.551,0.25,1.94,0.25c0.389-0.002,0.833-0.373,0.983-0.825l0.569,0.059
	l0.264,0.026c0.013,0.32,0.853,0.576,1.062,0.686c0.204,0.115,0.758,0.026,0.926-0.021c0.162-0.047,0.348,1.439,0.228,1.871
	c-0.119,0.43,0.295,1.936,0.413,2.391c0.122,0.454,0.639,1.695,0.691,2.141c0.051,0.447-0.302,1.928-0.362,2.447
	c-0.058,0.52,0.647,1.971,0.833,2.471c0.184,0.498,0.335,1.57,0.335,1.818c0,0.252,0.769,1.751,0.948,2.369
	C66.728,88.217,68.662,88.368,69.182,88.063"/>
<path fill="#CDD4D7" d="M102.567,69.676c0.053,0.109,0.538-0.275,0.831-0.32c0.291-0.047,0.478-0.831,0.249-0.885
	c-0.23-0.063-0.521-0.662-0.688-0.738c-0.164-0.074-0.485,0.26-0.472,0.497c0.015,0.237-0.528,0.334-0.633,0.533
	c-0.103,0.195-0.097,0.34,0.015,0.32C101.981,69.063,102.519,69.567,102.567,69.676"/>
<path fill="#CDD4D7" d="M101.973,73.928c0.144-0.054-0.017-0.826-0.32-0.892c-0.305-0.062-1.143,1.02-0.983,1.644
	c0.16,0.621,0.334,0.583,0.422,0.452c0.087-0.13,0.587,0.086,0.734,0.135c0.147,0.051,0.147-0.102,0-0.332
	S101.827,73.983,101.973,73.928"/>
<path fill="#CDD4D7" d="M100.315,73.174c0.034-0.276,0.088-1.14,0.135-1.312c0.047-0.172-0.472-0.668-0.726-0.758
	c-0.253-0.088-1.07,1.682-1.656,1.998c-0.587,0.315-0.8,1.394-0.646,1.644c0.158,0.248,1.377,0.382,1.59,0.572
	c0.219,0.184,0.451-0.033,0.58-0.065c0.132-0.029,0.088-0.112,0.041-0.146c-0.049-0.029,0.429-0.533,0.496-0.853
	C100.197,73.937,100.279,73.448,100.315,73.174"/>
<path fill="#CDD4D7" d="M96.988,76.124c-0.458-0.173-0.997,0.098-1.041,0.275c-0.045,0.176,1.769,0.464,2.368,0.627
	c0.599,0.162,0.975,0.217,0.838,0.115C99.013,77.04,97.445,76.298,96.988,76.124"/>
<path fill="#CDD4D7" d="M100.663,64.341c0.148-0.201-0.202-1.15-0.377-0.936s-0.046,0.768,0.009,0.961
	C100.349,64.555,100.517,64.546,100.663,64.341"/>
<path fill="#CDD4D7" d="M101.757,66.375c0.104-0.245-0.129-0.515-0.521-0.596c-0.394-0.083-0.336,1.095-0.162,1.247
	C101.241,67.175,101.653,66.622,101.757,66.375"/>
<path fill="#CDD4D7" d="M103.793,73.678c0.472,0.329,1.519,0.177,1.546-0.456C104.879,72.917,103.755,72.969,103.793,73.678"/>
<path fill="#CDD4D7" d="M103.542,59.226c-0.196,0.135-0.297,0.484-0.236,0.624c-0.029-0.001-0.057-0.003-0.08-0.003
	c-0.158,0-0.175,0.619-0.011,0.726c0.16,0.104,0.558-0.485,0.765-0.623c0.207-0.142,0.625-0.225,0.683-0.181
	c0.065,0.045,0.427-0.064,0.813-0.242c0.065-0.031,0.144-0.133,0.226-0.277c-0.093-0.451-0.2-0.895-0.306-1.34
	c-0.199,0.144-0.416,0.298-0.517,0.39C104.669,58.485,103.797,59.051,103.542,59.226"/>
<path fill="#CDD4D7" d="M92.838,71.657c0,0,0.003,0.001,0.006,0.003C92.76,71.6,92.75,71.595,92.838,71.657"/>
<path fill="#CDD4D7" d="M95.755,74.378c-0.168-0.387-0.73-1.034-1.246-1.443l-0.195-0.322l-0.215-0.354
	c-0.193-0.389-0.773-0.688-0.824-0.806c-0.049-0.112-0.233,0.339-0.431,0.207c0.103,0.073,0.32,0.228,0.625,0.444
	c0.544,0.389,1.593,3.027,1.832,3.213C95.537,75.502,95.923,74.762,95.755,74.378"/>
<path fill="#CDD4D7" d="M87.394,70.118c-0.146,0.296,0.773,0.93,0.847,0.783c0.075-0.145-0.116-0.877-0.282-1.037
	C87.796,69.705,87.54,69.819,87.394,70.118"/>
<path fill="#CDD4D7" d="M75.158,84.206c0.036,0.314,0.673,0.563,0.854,0.512c0.188-0.054,0.699-1,0.774-1.272
	c0.069-0.276,0.13-0.862,0.13-1.001s0.084-0.454,0.156-0.492c0.068-0.036,0.188-0.359,0.258-0.715
	c0.069-0.359-0.386-2.021-0.395-2.315c-0.01-0.29-0.342,0.152-0.426,0.447c-0.088,0.296-0.916,0.897-1.101,1.151
	c-0.183,0.248-0.385,1.099-0.313,1.246c0.068,0.146-0.071,0.724-0.155,0.888C74.858,82.813,75.126,83.892,75.158,84.206"/>
<path fill="#CDD4D7" d="M45.299,95.718h0.555C45.953,95.116,45.269,95.217,45.299,95.718"/>
<path fill="#CDD4D7" d="M60.14,33.052c-0.233,0.03-0.837-0.09-0.939-0.202c-0.106-0.11-1.011-0.209-1.273-0.098
	c-0.261,0.109-0.081-0.637,0.282-0.719c0.363-0.082,0.054-0.594-0.331-0.596c-0.388-0.002-1.343-0.143-1.567-0.094
	c-0.227,0.05-0.664-0.156-0.825-0.179c-0.161-0.024-1.305,0.343-1.848,0.317c-0.544-0.025-1.877,0.03-2.164,0.112
	c-0.292,0.076-0.498,0.639-0.458,0.84c0.039,0.201-1.29,0.197-1.708,0.202c-0.421,0.006-2.652,0.481-3.235,0.803
	c-0.585,0.32-1.041,1.14-0.847,1.157c0.195,0.015-0.322,0.478-0.635,0.587c-0.314,0.108-1.062,0.154-1.24,0.332
	c-0.173,0.177,0.187,0.296,0.258,0.415c0.069,0.115,0.28-0.102,0.478,0.011c0.195,0.11,0.844,0.164,1.018,0.23
	c0.176,0.067-0.554,0.206-0.893,0.231c-0.341,0.022-0.263,0.692,0.014,0.787c0.277,0.091,0.993,0.19,1.067,0.075
	c0.073-0.117,0.852,0.125,1.202,0.168c0.348,0.038,0.616,0.915,0.722,1.104c0.109,0.192,0.13,0.859,0.104,1.052
	c-0.025,0.192,0.619,0.546,0.735,0.424c0.115-0.123,0.083,0.302-0.176,0.278c-0.258-0.02-0.088,0.721,0.231,0.828
	c0.317,0.106,0.097,0.563-0.083,0.702c-0.185,0.139-0.086,0.573-0.275,0.731c-0.185,0.154,0.666,1.633,0.662,2.392
	c-0.006,0.758,0.468,1.379,0.649,1.379c0.183,0,0.806,0.154,0.888,0.317c0.083,0.161,0.385-0.113,0.504-0.239
	c0.116-0.124,0.371-0.488,0.562-0.81c0.194-0.321,0.622-1.845,0.679-2.009c0.057-0.164,0.772-0.06,0.936-0.143
	c0.16-0.085,0.632-0.453,0.763-0.564c0.133-0.109,1.153-0.54,1.433-0.743c0.279-0.201,0.742-1.063,0.959-1.25
	c0.215-0.184-0.113-0.128-0.386-0.307c-0.269-0.177-0.15-0.396-0.069-0.479c0.076-0.083,0.9,0.136,1.183,0.246
	c0.285,0.113,0.823-0.279,0.618-0.433c-0.209-0.146-0.098-0.144,0-0.08c0.1,0.064,0.203-0.5,0.098-0.606
	c-0.108-0.107,0.832-0.793,0.666-1.444c-0.166-0.648,0.258-1.313,0.511-1.32c0.252-0.01,0.177-0.734-0.126-0.802
	c-0.302-0.066-0.016-0.133,0.096-0.236c0.113-0.103,0.256-0.751,0.191-0.877c-0.068-0.123,0.46-0.263,0.553-0.411
	c0.096-0.146,0.702-0.436,0.915-0.485C60.253,33.595,60.369,33.029,60.14,33.052"/>
<path fill="#CDD4D7" d="M65.415,33.585c-0.289-0.1-0.873,0.22-0.8,0.4c0.075,0.184-0.476-0.231-0.86-0.033
	c-0.386,0.201-0.493,0.876-0.316,0.964c0.177,0.089,0.306,0.624,0.31,0.728c0.009,0.105,0.75,0.029,0.94-0.126
	c0.19-0.157,0.161,0.545-0.023,0.735c-0.19,0.187,0.067,0.567,0.274,0.599c0.208,0.028,0.489,0.516,0.702,0.512
	c0.209-0.007,0.573-0.823,0.655-1.132c0.085-0.301,0.793-0.062,1.119,0.035c0.322,0.096,0.439-1.124,0.089-1.311
	c-0.347-0.183-0.788-0.092-0.932-0.232c-0.146-0.141-0.395-0.272-0.557-0.296C65.851,34.403,65.701,33.679,65.415,33.585"/>
<path fill="#CDD4D7" d="M68.244,34.169c0.57,0.082,1.215-0.389,1.353-0.523c0.141-0.133-1.585-0.485-2.24-0.504
	c-0.656-0.021-1.184,0.07-1.174,0.199C66.191,33.467,67.671,34.087,68.244,34.169"/>
<path fill="#CDD4D7" d="M57.817,49.624c-0.15-0.062-0.233,0.504-0.196,0.717c0.033,0.215,0.559,0.198,0.782,0.159
	c0.224-0.039,0.399-0.221,0.392-0.407c-0.01-0.182-0.331-1.027-0.457-1.027C58.209,49.066,57.969,49.685,57.817,49.624"/>
<path fill="#CDD4D7" d="M59.512,43.05c-0.119-0.206-1.014-0.181-1.233-0.194c-0.218-0.012-0.888-0.236-1.015-0.379
	c-0.127-0.141-0.225,0.552-0.429,0.645c-0.204,0.088,0.101,0.22,0.186,0.146c0.083-0.071-0.008,0.358-0.099,0.506
	c-0.092,0.149,0.597,0.252,0.675,0.476c0.078,0.223,0.364,0.367,0.635,0.324c0.27-0.046,0.809-0.324,1-0.341
	C59.42,44.211,59.629,43.257,59.512,43.05"/>
<path fill="#CDD4D7" d="M78.335,37.918c0.309-0.311,1.574-0.727,1.719-1.046c0.143-0.318-0.089-0.579-0.216-0.579
	c-0.129,0-0.287,0.159-0.317,0.211c-0.033,0.052-1.486,0.395-1.932,0.61c-0.445,0.214-0.964,0.548-1.15,0.736
	c-0.189,0.19-0.496,1.632-0.604,1.794c-0.106,0.164,0.479,0.75,0.746,0.913c0.262,0.161,0.62,0.077,0.724,0.046
	c0.1-0.033-0.137-1.038-0.273-1.39C76.894,38.864,78.026,38.229,78.335,37.918"/>
<path fill="#CDD4D7" d="M76.779,34.162c0.479,0.474,0.741-0.213,1.269-0.143C78.035,33.052,76.732,33.385,76.779,34.162"/>
<path fill="#CDD4D7" d="M86.082,34.342c-0.015,0.178,1.321,0.321,1.714,0.253c0.391-0.069-0.081-0.679-0.652-0.643
	C86.573,33.988,86.097,34.164,86.082,34.342"/>
<path fill="#CDD4D7" d="M37.625,44.266c-0.14,0.132-0.019,0.788,0.25,0.806c0.268,0.02,0.697-0.99,1.024-0.789
	c0.329,0.205,0.549,0.283,0.497,0.177c-0.057-0.107-0.99-0.517-1.103-0.59C38.174,43.798,37.768,44.139,37.625,44.266"/>
<path fill="#CDD4D7" d="M41.048,66.487c0,0.109,0.585,0.095,0.679-0.084c0.092-0.18,0.045-0.325-0.114-0.325
	C41.459,66.078,41.048,66.375,41.048,66.487"/>
<path fill="#CDD4D7" d="M38.452,65.526c0.278-0.052,0.144,0.399,0.215,0.561c0.065,0.164,0.737,0.294,0.87,0.404
	c0.134,0.107,0.478-0.206,0.745-0.172c0.27,0.033-0.086-0.928-0.535-0.9c-0.449,0.03-0.803-0.406-0.909-0.457
	c-0.111-0.051-0.628-0.366-0.778-0.488c-0.145-0.118-1.291-0.22-1.679-0.22c-0.389,0-0.816,0.398-0.876,0.527
	c-0.061,0.13,0.616,0.219,0.809,0.116c0.194-0.102,1.099,0.113,1.285,0.333C37.785,65.446,38.168,65.583,38.452,65.526"/>
<path fill="#CDD4D7" d="M37.23,66.487c0,0.109,0.59,0.041,0.73,0.045c0.142,0.005,0.138-0.094-0.01-0.215
	C37.801,66.2,37.23,66.375,37.23,66.487"/>
<path fill="#CDD4D7" d="M37.646,63.454c-0.151-0.06-0.276,0.183-0.276,0.294c0,0.112,0.085,0.208,0.187,0.208
	C37.662,63.956,37.799,63.516,37.646,63.454"/>
<path fill="#CDD4D7" d="M38.882,63.55c-0.052-0.112-0.304-0.205-0.38-0.205c-0.077,0-0.129,0.196-0.117,0.432
	C38.397,64.015,38.931,63.661,38.882,63.55"/>
<path fill="#CDD4D7" d="M39.77,64.917c0.24-0.113,0.268-0.398,0.127-0.382c-0.143,0.014-0.404-0.411-0.558-0.472
	c-0.151-0.06-0.277,0.255-0.277,0.394c0,0.14,0.087,0.233,0.191,0.205C39.357,64.636,39.53,65.029,39.77,64.917"/>
<path fill="#CDD4D7" d="M105.566,74.17c-0.123,0.063-0.717,0.136-0.793,0.021c-0.081-0.117-0.197,0.238-0.325,0.293
	c-0.126,0.062-0.057,0.371,0.133,0.275c0.131-0.066,0.694,0.248,1.153,0.533c0.089-0.451,0.169-0.907,0.244-1.366
	C105.813,74.011,105.645,74.129,105.566,74.17"/>
<path fill="#DBE3E6" d="M37.892,79.403c-0.056,0.109,0.665,0.855,0.948,1.105c0.281,0.258,0.876,1.472,0.999,1.871
	c0.12,0.397,0.048,1.049,0.009,1.203c-0.035,0.154,0.136,0.492,0.164,0.631c0.026,0.141-0.249,1.334-0.144,1.813
	c0.105,0.48-0.56,1.975-0.544,2.715c0.015,0.744,0.351,1.712,0.489,1.641c0.133-0.074,0.18,0.676-0.047,0.764
	c-0.227,0.09-0.489,0.683-0.361,0.712c0.126,0.03-0.012,0.614,0.026,0.849c0.032,0.232,0.229,1.773,0.272,2.157
	c0.044,0.386,0.59,1.321,0.707,1.64c0.115,0.318,0.232,0.92,0.276,1.01c0.045,0.095,0.102,0.188,0.109,0.191
	c0.011,0.004,0.45,0.167,0.579,0.264c0.132,0.098,0.996,0.037,1.28-0.022c0.283-0.058,0.023-0.315-0.106-0.457
	c-0.128-0.142-0.241-0.825-0.386-0.896c-0.145-0.066-0.21-0.94-0.081-1.131c0.129-0.195,0.647-0.502,0.704-0.664
	c0.056-0.162,0.072-0.922-0.068-1.025c-0.139-0.104,0.042-1.025-0.063-1.484c-0.106-0.457,0.795-0.873,0.849-1.238
	c0.049-0.36,1.026-0.75,1.243-0.931c0.222-0.186,0.416-1.223,0.31-1.446c-0.108-0.224,0.358-0.405,0.566-0.405
	c0.206,0,0.439-0.147,0.523-0.147c0.078-0.004,0.326-0.463,0.457-0.568c0.135-0.105,0.409-1.205,0.649-1.385
	c0.244-0.182,0.444-0.845,0.444-1.037c0-0.195,0.369-0.775,0.491-0.949s1.029-0.59,1.191-0.654c0.164-0.066,0.412-1.527,0.474-2.053
	c0.059-0.525,0.335-1.227,0.356-1.399c0.017-0.17,0.309-0.319,0.362-0.374c0.055-0.055,0.272-0.723,0.412-0.877
	c0.14-0.152,0.642-0.79,0.653-0.933c0.014-0.142,0.089-0.507,0.172-0.813l-0.003-0.358l0.004-0.567
	c-0.159-0.438-0.647-0.991-0.772-0.868c-0.125,0.12-0.687-0.39-0.975-0.498c-0.287-0.107-1.003-0.195-1.182-0.195
	c-0.182,0-0.808-0.513-1.09-0.602c-0.28-0.089-0.994-0.224-1.124-0.311c-0.132-0.082-0.308-1.146-0.883-1.494
	c-0.579-0.35-1.589-1.159-1.699-1.458c-0.111-0.298-1.219-0.923-1.562-1.111c-0.34-0.189-0.858-0.234-0.922-0.165
	c-0.067,0.063-0.492-0.576-0.712-0.761c-0.222-0.18-0.886-0.33-0.915-0.17c-0.03,0.165-0.47,0.079-0.573-0.06
	c-0.103-0.136-0.446,0.056-0.607,0.109c-0.16,0.052-0.71,0.894-0.96,1.095c-0.255,0.201-0.557-0.187-0.723-0.259
	c-0.168-0.072-0.804,0.124-0.977,0.248c-0.172,0.123-0.572-0.89-0.479-1.356c0.093-0.468-0.417-1.396-0.814-1.417
	c-0.391-0.024-0.514-0.999-0.436-1.359c0.078-0.358-0.714-0.585-0.911-0.607c-0.201-0.027-0.692,0.479-0.776,0.721
	c-0.086,0.244-1.877-0.33-1.664-1.403c0.207-1.076,1.057-2.186,1.269-2.32c0.212-0.128,1.364-0.194,1.618-0.049
	c0.255,0.148,0.485-0.003,0.528-0.067c0.044-0.069,0.984,0.008,1.263,0.124c0.28,0.114,0.684,1.199,0.973,1.332
	c0.295,0.136,0.398-0.7,0.444-0.905c0.05-0.202-0.141-0.717-0.211-0.863c-0.071-0.145,0.467-1.461,0.909-1.684
	c0.435-0.226,0.901-0.958,0.862-1.087c-0.039-0.127,0.353-0.23,0.458-0.285c0.104-0.053-0.015-1.118,0.155-1.351
	c0.174-0.228,0.999-0.716,1.259-0.826c0.259-0.11,0.457-0.782,0.362-0.898c-0.094-0.121,0.676-0.775,1.077-0.902
	c0.397-0.123,0.742,0.229,0.643,0.286c0.08-0.046,0.631-0.329,0.867-0.483c0.274-0.184,0.003-0.682-0.175-0.83
	c-0.173-0.142-0.068-0.72,0.143-0.774c0.214-0.051,0.399-0.552,0.343-0.657c-0.055-0.11,0.878,0.085,1.234-0.179
	c0.354-0.265,0.1,0.634-0.158,0.996c-0.259,0.36,0.192,0.705,0.358,0.634c0.168-0.068,0.347,0.193,0.38,0.295
	c0.034,0.101,0.395-0.105,0.631-0.002c0.234,0.103,0.374-0.324,0.393-0.518c0.017-0.199-0.562-0.607-0.654-0.842
	c-0.091-0.234-0.129-1.607-0.143-1.89c-0.011-0.28-0.388-0.737-0.512-0.655c-0.119,0.08-0.366-0.73-0.563-0.906
	c-0.197-0.176-0.242-0.564-0.233-0.695c0.01-0.13-0.663-0.832-0.827-1.158c-0.161-0.325-0.387-0.258-0.403-0.109
	c-0.015,0.147-0.482,0.168-0.673,0.151c-0.195-0.019-0.354-0.762-0.354-1.043c0-0.279-0.865-0.327-1.009-0.555
	c-0.141-0.222-0.705-0.117-0.796-0.274c-0.092-0.157-0.592-0.301-0.688-0.243c-0.104,0.06-0.055,2.073-0.15,2.617
	c-0.096,0.542-0.557,1.02-0.726,1.008c-0.166-0.012-0.068,0.386,0.05,0.351c0.118-0.039-0.328,0.594-0.385,1.007
	c-0.059,0.411-0.478-0.019-0.546-0.393c-0.068-0.373-0.477-0.882-0.553-0.753c-0.078,0.128-0.364-0.154-0.483-0.074
	c-0.122,0.08-0.897-0.45-1.209-0.62c-0.311-0.166-0.488-1.125-0.667-1.208c-0.18-0.086-0.027-0.203-0.036-0.345
	c-0.004-0.147,0.605-0.705,0.791-0.926c0.184-0.222,0.853-1.092,1.121-1.28c0.266-0.189,0.472-0.686,0.427-0.779
	c-0.046-0.092,1.136-0.461,1.458-0.571c0.319-0.11,0.595-1.004,0.638-1.26c0.046-0.257-0.2-0.742-0.348-0.806
	c-0.149-0.064,0.447-0.086,0.644,0.012c0.2,0.098,0.807-0.18,1.049-0.053c0.239,0.131,0.726,0.418,1.081,0.639l-0.08,0.656
	l-0.14,1.113c-0.933,0.387-1.201,1.052-0.873,1.041c0.324-0.018,1.814,0.643,2.235,0.944c0.42,0.302,0.553-0.435,0.676-0.683
	c0.124-0.241,0.083-0.956-0.015-1.095c-0.103-0.143,0.484-0.093,0.649,0.067c0.167,0.156,0.36-0.164,0.486-0.222
	c0.128-0.056,0.191-0.668,0.257-0.792c0.071-0.123-0.276-0.248-0.288-0.397c-0.011-0.158-0.678-0.446-0.896-0.55
	c-0.219-0.103-0.27-0.566-0.16-0.646c0.104-0.081-0.074-0.667-0.183-0.862c-0.106-0.195-0.804-0.352-1.038-0.352
	c-0.233,0-0.474-0.542-0.607-0.619c-0.135-0.078-1.035-0.177-1.252-0.112c-0.223,0.066-0.628-0.636-1.003-0.421
	c-0.375,0.213-0.761-0.252-0.93-0.343c-0.172-0.091-1.05,0.847-1.039,1.509c0.009,0.663,0.339,1.303,0.478,1.323
	c0.138,0.017-0.031,0.615-0.186,0.787c-0.149,0.168-0.52-0.182-0.378-0.332c0.138-0.151-0.38-0.844-0.562-1.126
	c-0.126-0.203-0.583-0.382-0.892-0.506c-0.178,0.196-0.357,0.396-0.532,0.597c0.07,0.242,0.15,0.555,0.072,0.791
	c-0.131,0.404-0.468,0.465-0.489,0.29c-0.01-0.077-0.18-0.136-0.38-0.162c-0.182,0.219-0.359,0.444-0.536,0.668
	c-0.175,0.218-0.349,0.44-0.522,0.662c-0.183,0.239-0.364,0.48-0.54,0.722c-0.158,0.219-0.314,0.44-0.469,0.659
	c-0.231,0.332-0.458,0.663-0.68,0.998c-0.211,0.323-0.42,0.646-0.622,0.973c-0.175,0.282-0.341,0.569-0.508,0.854
	c-0.115,0.196-0.231,0.395-0.343,0.593c-0.168,0.299-0.333,0.601-0.494,0.905c-0.089,0.172-0.176,0.345-0.264,0.521
	c-0.366,0.714-0.716,1.442-1.038,2.181c-0.01,0.021-0.02,0.042-0.027,0.062c-0.16,0.365-0.31,0.732-0.456,1.103
	c-0.057,0.14-0.115,0.281-0.166,0.421c-0.149,0.38-0.291,0.762-0.428,1.148c-0.022,0.063-0.042,0.128-0.065,0.192
	c-0.448,1.291-0.832,2.61-1.145,3.955c-0.025,0.091-0.045,0.179-0.065,0.271c-0.318,1.392-0.564,2.809-0.733,4.25
	c-0.001,0.012-0.004,0.022-0.005,0.031c0.194,0.225,0.417,0.487,0.477,0.677c0.11,0.356,0.727,0.589,0.843,0.662
	c0.115,0.071,0.159-0.68,0.074-0.876c-0.078-0.196,0.15-0.312,0.145-0.169c-0.007,0.144,0.582,0.805,0.775,1.045
	c0.192,0.239,0.392,1.784,0.579,2.117c0.183,0.331,1.965,1.016,2.542,1.137c0.571,0.123,1.296,0.764,1.411,0.95
	c0.108,0.185,0.871,0.278,1.034,0.35c0.166,0.077,0.559,0.594,0.721,0.702c0.159,0.109,0.288,0.416,0.288,0.497
	c0,0.08,1.008,0.463,1.252,0.731c0.244,0.271,0.646,0.196,0.722,0.084c0.077-0.114,0.276,0.534,0.38,0.758
	c0.102,0.224,0.128,0.774,0.048,0.864c-0.078,0.084-0.224,1.099-0.394,1.302c-0.172,0.203-0.528,1.672-0.452,1.963
	c0.08,0.293,0.55,0.894,0.754,0.983c0.205,0.087,0.118,0.401-0.042,0.425c-0.162,0.02-0.087,1.424,0.293,1.633
	C37.628,78.673,37.945,79.298,37.892,79.403"/>
<path fill="#DBE3E6" d="M42.659,54.736"/>
<path fill="#DBE3E6" d="M39.89,37.655c0.484-0.083,1.292-0.217,1.346-0.351c0.042-0.113,0.046-0.444-0.045-0.564
	c0.075,0.007,0.167,0.012,0.237,0.012c0.181,0,0.488-1.011,0.684-1.246c0.194-0.235,1.301-0.584,1.565-0.742
	c0.264-0.161,0.843-0.716,1.065-0.783c0.22-0.065,0.545-0.583,0.496-0.688c-0.049-0.104,0.752-0.587,1.053-0.719
	c0.304-0.128,0.46-0.483,0.347-0.497c-0.072-0.009-1.765,0.875-3.312,1.756c-0.016,0.009-0.031,0.019-0.045,0.031
	c-0.443,0.3-0.88,0.613-1.309,0.932c-0.293,0.217-0.58,0.442-0.866,0.668c-0.153,0.118-0.306,0.236-0.454,0.355
	c-0.341,0.276-0.679,0.559-1.009,0.845c-0.07,0.061-0.14,0.121-0.21,0.181c-0.368,0.324-0.733,0.652-1.09,0.987
	C38.825,37.798,39.573,37.709,39.89,37.655"/>
<path fill="#DBE3E6" d="M65.519,57.43c-0.19-0.007-0.195,0.572,0.002,0.636c0.147,0.045,0.329-0.326,0.499-0.567v-2.257
	c-0.014-0.016-0.03-0.037-0.044-0.05c-0.239-0.241-0.201-0.247,0.044-0.063V41.278c-0.205,0.187-0.403,0.372-0.529,0.469
	c-0.332,0.261-0.91,1.388-1.097,1.657c-0.191,0.266-0.461,0.318-0.573,0.323c-0.11,0.008-0.201,0.307-0.201,0.417
	c0,0.111-0.979,0.62-1.08,1.066c-0.106,0.445,0.094,1.462,0.094,1.822c0,0.363,0.365,1.078,0.635,1.089
	c0.272,0.013,0.132,0.613,0.06,0.781c-0.071,0.171,0.17,0.357,0.164,0.5c-0.01,0.144-0.689,0.345-0.901,0.426
	c-0.211,0.078-0.549,0.553-0.594,0.73c-0.038,0.153-0.695,0.262-0.908,0.471c0.053-0.149,0.127-0.357,0.186-0.473
	c0.124-0.237-0.048-0.652-0.15-0.736c-0.104-0.087-0.153-1.264-0.317-1.516c-0.165-0.253-0.578-0.68-0.679-0.766
	c-0.1-0.08,0.07-0.391,0.13-0.524c0.058-0.128-0.548-0.204-0.716-0.108c-0.166,0.096-0.254,1.262-0.326,1.581
	c-0.069,0.32,0.3,0.809,0.402,0.833c0.099,0.024,0.07,0.597-0.14,0.617c-0.215,0.019-0.411,0.858-0.302,1.049
	c0.114,0.191-0.15,0.565-0.277,0.654c-0.127,0.085,0.818,0.037,1.249,0.025c0.431-0.012,0.77,0.182,0.724,0.218
	c-0.045,0.036-0.824,0.149-0.965,0.335c-0.136,0.186-0.669,0.542-0.772,0.686c-0.101,0.139,0.176,0.455,0.402,0.439
	c0.222-0.012,0.479,0.776,0.653,0.924c0.175,0.145,0.111,0.554,0.035,0.669c-0.077,0.109-1.135-0.076-1.534,0.021
	c-0.403,0.099-0.907,0.949-0.941,1.267c-0.037,0.321,0.064,1.24,0.117,1.494c0.049,0.253,0.888,0.412,1.058,0.537
	c0.173,0.124,0.975,0.003,1.143,0.08c0.163,0.08,0.708-0.813,0.814-1.226c0.105-0.416,0.96-1.176,1.14-1.46
	c0.178-0.282,1.1-0.247,1.326-0.397c0.23-0.143,0.101,0.701,0.211,1.167c0.11,0.466,0.991,0.407,0.862-0.029
	c-0.128-0.437,0.085-0.628,0.122-0.471c0.037,0.159,0.886,0.505,1.047,0.749C65.751,56.916,65.706,57.437,65.519,57.43"/>
<path fill="#DBE3E6" d="M66.02,60.169c-0.172-0.09-0.334-0.172-0.457-0.224c-0.523-0.219-0.932-1.014-1.037-1.117
	c-0.11-0.105,0.087-0.362,0.039-0.518c-0.05-0.16-1.24-0.191-1.586-0.062c-0.348,0.126-2.131,0.317-2.552,0.499
	c-0.424,0.19-1.058-0.011-1.257-0.045c-0.197-0.034-0.668,0.546-0.909,0.652c-0.241,0.107-0.543,0.932-0.675,1.838l-0.326,0.631
	l-0.21,0.404c-0.588,0.448-1.24,1.945-1.431,2.245c-0.19,0.297-0.343,2.453-0.343,3.177c0,0.723,0.629,2.257,0.809,2.68
	c0.177,0.424,1.271,1.359,1.636,1.584c0.365,0.219,1.551,0.25,1.941,0.249c0.388-0.002,0.833-0.372,0.982-0.823l0.569,0.059
	l0.264,0.026c0.013,0.319,0.854,0.574,1.063,0.685c0.204,0.117,0.757,0.027,0.925-0.02c0.162-0.046,0.348,1.439,0.228,1.871
	c-0.119,0.43,0.295,1.936,0.413,2.391c0.122,0.455,0.639,1.696,0.691,2.141c0.051,0.447-0.302,1.929-0.362,2.447
	c-0.058,0.52,0.648,1.97,0.833,2.471c0.184,0.498,0.335,1.57,0.335,1.818c0,0.127,0.2,0.578,0.417,1.072V60.169z"/>
<path fill="#DBE3E6" d="M45.299,95.718h0.555C45.953,95.116,45.269,95.217,45.299,95.718"/>
<path fill="#DBE3E6" d="M56.517,40.34c0.285,0.113,0.823-0.279,0.618-0.433c-0.209-0.146-0.097-0.144,0-0.08
	c0.1,0.064,0.203-0.5,0.098-0.606c-0.108-0.106,0.832-0.793,0.666-1.444c-0.166-0.648,0.258-1.313,0.511-1.32
	c0.253-0.01,0.177-0.734-0.126-0.802c-0.302-0.066-0.016-0.133,0.096-0.236c0.113-0.103,0.256-0.751,0.191-0.877
	c-0.068-0.123,0.46-0.262,0.553-0.411c0.096-0.146,0.703-0.435,0.915-0.485c0.215-0.051,0.331-0.617,0.101-0.594
	c-0.233,0.03-0.837-0.09-0.939-0.202c-0.106-0.11-1.011-0.209-1.273-0.098c-0.261,0.109-0.081-0.637,0.282-0.719
	c0.363-0.082,0.054-0.594-0.331-0.596c-0.388-0.002-1.342-0.143-1.567-0.094c-0.227,0.05-0.664-0.156-0.825-0.179
	c-0.161-0.024-1.305,0.343-1.848,0.317c-0.544-0.025-1.877,0.03-2.164,0.112c-0.292,0.076-0.498,0.639-0.458,0.84
	c0.039,0.201-1.29,0.197-1.708,0.202c-0.421,0.006-2.652,0.481-3.235,0.803c-0.585,0.32-1.041,1.14-0.847,1.157
	c0.195,0.015-0.322,0.478-0.635,0.587c-0.314,0.108-1.063,0.154-1.24,0.332c-0.173,0.177,0.187,0.296,0.258,0.415
	c0.069,0.115,0.28-0.102,0.478,0.011c0.195,0.11,0.844,0.164,1.018,0.23c0.176,0.068-0.554,0.206-0.893,0.231
	c-0.341,0.022-0.263,0.692,0.014,0.787c0.277,0.092,0.993,0.19,1.067,0.075c0.073-0.117,0.852,0.125,1.202,0.168
	c0.348,0.038,0.616,0.915,0.722,1.104c0.11,0.192,0.13,0.859,0.104,1.052c-0.025,0.193,0.619,0.546,0.735,0.424
	c0.115-0.123,0.083,0.302-0.176,0.278c-0.258-0.021-0.088,0.721,0.231,0.828c0.317,0.106,0.097,0.563-0.083,0.702
	c-0.185,0.139-0.086,0.573-0.275,0.731c-0.185,0.154,0.666,1.633,0.662,2.392c-0.006,0.758,0.468,1.38,0.649,1.38
	c0.183,0,0.806,0.153,0.888,0.316c0.084,0.161,0.385-0.113,0.504-0.239c0.116-0.124,0.371-0.488,0.562-0.81
	c0.194-0.321,0.622-1.845,0.679-2.009c0.057-0.164,0.772-0.06,0.936-0.143c0.16-0.085,0.632-0.453,0.763-0.564
	c0.133-0.109,1.153-0.54,1.434-0.743c0.278-0.201,0.741-1.063,0.958-1.25c0.215-0.183-0.113-0.128-0.386-0.307
	c-0.269-0.177-0.15-0.396-0.069-0.479C55.41,40.011,56.233,40.23,56.517,40.34"/>
<path fill="#DBE3E6" d="M65.415,33.585c-0.289-0.1-0.873,0.22-0.8,0.4c0.075,0.184-0.476-0.231-0.86-0.033
	c-0.386,0.201-0.493,0.876-0.316,0.964c0.177,0.089,0.306,0.624,0.31,0.728c0.009,0.105,0.75,0.029,0.94-0.126
	c0.19-0.157,0.161,0.545-0.023,0.735c-0.19,0.187,0.067,0.567,0.274,0.599c0.208,0.028,0.489,0.516,0.702,0.512
	c0.106-0.004,0.249-0.211,0.377-0.458v-2.475l-0.001-0.003C65.851,34.403,65.701,33.679,65.415,33.585"/>
<path fill="#DBE3E6" d="M58.403,50.5c0.225-0.039,0.399-0.221,0.392-0.407c-0.01-0.182-0.331-1.027-0.457-1.027
	c-0.128,0-0.369,0.619-0.521,0.558c-0.149-0.062-0.232,0.504-0.196,0.717C57.654,50.556,58.18,50.539,58.403,50.5"/>
<path fill="#DBE3E6" d="M57.597,44.249c0.078,0.223,0.364,0.367,0.635,0.324c0.27-0.046,0.809-0.324,1-0.342
	c0.188-0.02,0.397-0.974,0.28-1.181c-0.119-0.206-1.014-0.181-1.233-0.195c-0.218-0.011-0.888-0.235-1.015-0.378
	c-0.127-0.141-0.225,0.552-0.429,0.644c-0.204,0.088,0.101,0.22,0.186,0.146c0.083-0.072-0.008,0.358-0.099,0.505
	C56.83,43.922,57.519,44.024,57.597,44.249"/>
<path fill="#DBE3E6" d="M37.625,44.266c-0.14,0.132-0.019,0.788,0.25,0.806c0.268,0.02,0.697-0.99,1.024-0.789
	c0.329,0.205,0.549,0.283,0.497,0.177c-0.057-0.107-0.99-0.517-1.103-0.59C38.174,43.798,37.768,44.139,37.625,44.266"/>
<path fill="#DBE3E6" d="M41.048,66.487c0,0.109,0.585,0.095,0.679-0.084c0.092-0.18,0.045-0.325-0.114-0.325
	C41.459,66.078,41.048,66.375,41.048,66.487"/>
<path fill="#DBE3E6" d="M38.452,65.526c0.278-0.052,0.144,0.399,0.215,0.561c0.065,0.164,0.737,0.294,0.87,0.404
	c0.134,0.107,0.478-0.206,0.745-0.172c0.27,0.033-0.086-0.928-0.535-0.9c-0.449,0.03-0.803-0.406-0.909-0.457
	c-0.111-0.051-0.628-0.366-0.778-0.488c-0.145-0.118-1.291-0.22-1.679-0.22c-0.389,0-0.816,0.398-0.876,0.527
	c-0.061,0.13,0.616,0.219,0.809,0.116c0.194-0.102,1.099,0.113,1.285,0.333C37.785,65.446,38.168,65.583,38.452,65.526"/>
<path fill="#DBE3E6" d="M37.23,66.487c0,0.109,0.59,0.041,0.73,0.045c0.142,0.005,0.138-0.094-0.01-0.215
	C37.801,66.2,37.23,66.375,37.23,66.487"/>
<path fill="#DBE3E6" d="M37.646,63.454c-0.151-0.06-0.276,0.183-0.276,0.294c0,0.112,0.085,0.208,0.187,0.208
	C37.662,63.956,37.799,63.516,37.646,63.454"/>
<path fill="#DBE3E6" d="M38.882,63.55c-0.052-0.112-0.304-0.205-0.38-0.205c-0.077,0-0.129,0.196-0.117,0.432
	C38.397,64.015,38.931,63.661,38.882,63.55"/>
<path fill="#DBE3E6" d="M39.77,64.917c0.24-0.113,0.268-0.398,0.127-0.382c-0.143,0.014-0.404-0.411-0.558-0.472
	c-0.151-0.06-0.277,0.255-0.277,0.394c0,0.14,0.087,0.233,0.191,0.205C39.357,64.636,39.53,65.029,39.77,64.917"/>
<path fill="#AADAD5" d="M41.235,36.831c-0.04-0.04-0.208,0.083-0.132,0.157C41.137,37.038,41.302,36.917,41.235,36.831"/>
<path fill="#AADAD5" d="M45.725,50.2c-0.034-0.049-0.207,0.08-0.141,0.16C45.625,50.406,45.796,50.28,45.725,50.2"/>
<path fill="#DBE3E6" d="M28.025,103.979c-4.812,0-8.566-1.314-10.805-4.095c-4.716-5.858-1.8-17.259,7.801-30.498
	c0.126-0.176,0.372-0.215,0.55-0.087c0.176,0.127,0.215,0.373,0.087,0.55c-9.379,12.933-12.304,23.978-7.824,29.541
	c7.685,9.544,34.356,0.866,59.458-19.343c19.779-15.927,32.297-32.335,39.315-43.294c0.118-0.184,0.364-0.235,0.544-0.12
	c0.184,0.119,0.236,0.362,0.12,0.544c-7.052,11.009-19.624,27.489-39.486,43.485C59.501,95.382,40.321,103.979,28.025,103.979"/>
<path fill="#DBE3E6" d="M28.19,99.187c-3.548,0-6.334-0.952-8.089-2.963c-3.778-4.333-1.922-13.329,5.094-24.682
	c0.104-0.169,0.325-0.22,0.494-0.117c0.169,0.104,0.221,0.326,0.117,0.494c-6.738,10.904-8.669,19.813-5.164,23.832
	c7.021,8.043,31.575-1.858,54.737-22.068c17.1-14.921,28.291-29.752,34.668-39.565c0.105-0.169,0.328-0.213,0.496-0.106
	c0.166,0.108,0.213,0.33,0.104,0.496c-6.401,9.853-17.636,24.741-34.797,39.716C58.047,89.757,39.353,99.187,28.19,99.187"/>
<path fill="#DBE3E6" d="M116.616,31.226c4.248,3.021,5.997,8.247,4.801,13.016c1.243-0.816,2.363-1.87,3.277-3.157
	c3.938-5.533,2.64-13.211-2.895-17.148c-5.537-3.935-13.215-2.639-17.149,2.897c-0.917,1.285-1.544,2.688-1.904,4.131
	C106.859,28.27,112.368,28.205,116.616,31.226"/>
<path fill="#CDD4D7" d="M124.122,26.089l-5.186,7.292c2.522,3.029,3.426,7.084,2.48,10.86c1.243-0.815,2.363-1.869,3.277-3.156
	C128,36.435,127.612,30.273,124.122,26.089"/>
<path fill="#E28257" d="M115.69,32.528c1.232,0.877,2.283,1.913,3.146,3.063c4.037-2.175,8.112-5.789,11.471-10.514
	c5.335-7.502,7.437-15.789,6.031-21.589c-5.941,0.575-13.078,5.283-18.414,12.785c-3.358,4.726-5.432,9.76-6.16,14.288
	C113.132,31,114.458,31.652,115.69,32.528"/>
<path fill="#CC6D41" d="M136.338,3.488c-0.021,0.004-0.04,0.009-0.06,0.009l-20.625,29.008c0.013,0.007,0.023,0.014,0.037,0.023
	c1.231,0.877,2.283,1.913,3.146,3.063c4.037-2.175,8.111-5.789,11.471-10.514C135.644,17.575,137.743,9.288,136.338,3.488"/>
<path fill="#DBE3E6" d="M131.287,10.594c1.558,1.106,3.043,2.246,4.459,3.401c1.101-3.862,1.315-7.516,0.592-10.507
	c-3.063,0.298-6.442,1.702-9.729,4.009C128.166,8.457,129.729,9.486,131.287,10.594"/>
<path fill="#CDD4D7" d="M136.28,3.497l-5.03,7.071c0.013,0.009,0.024,0.018,0.037,0.026c1.556,1.106,3.043,2.246,4.459,3.401
	c1.101-3.862,1.316-7.517,0.593-10.507C136.317,3.492,136.298,3.495,136.28,3.497"/>
<path fill="#DBE3E6" d="M122.231,23.33c-1.732,0.767-4.193,3.083-6.41,6.205c-2.222,3.12-3.602,6.205-3.757,8.093
	c1.731-0.766,4.192-3.084,6.41-6.204C120.696,28.303,122.076,25.216,122.231,23.33"/>
<path fill="#CDD4D7" d="M122.147,23.37l-10.071,14.167c-0.004,0.028-0.01,0.062-0.012,0.091c1.731-0.766,4.192-3.084,6.41-6.204
	c2.222-3.121,3.602-6.208,3.757-8.094C122.204,23.342,122.175,23.357,122.147,23.37"/>
<path fill="#DBE3E6" d="M124.117,20.677c-1.917-1.364-2.37-4.035-1.005-5.953c1.363-1.918,4.033-2.369,5.951-1.006
	c1.919,1.364,2.369,4.035,1.006,5.953C128.706,21.591,126.036,22.041,124.117,20.677"/>
<path fill="#586172" d="M128.309,14.78c-1.333-0.948-3.188-0.634-4.138,0.697c-0.946,1.334-0.633,3.189,0.699,4.139
	c1.334,0.946,3.189,0.634,4.137-0.7C129.956,17.584,129.642,15.728,128.309,14.78"/>
<path fill="#CDD4D7" d="M129.063,13.718c-0.012-0.009-0.021-0.015-0.036-0.023l-0.754,1.061c0.013,0.009,0.022,0.016,0.035,0.024
	c1.333,0.948,1.647,2.804,0.698,4.136c-0.947,1.334-2.803,1.647-4.135,0.7c-0.013-0.008-0.022-0.02-0.037-0.027l-0.75,1.061
	c0.011,0.007,0.021,0.018,0.033,0.027c1.918,1.364,4.588,0.914,5.951-1.006C131.434,17.753,130.982,15.082,129.063,13.718"/>
<path fill="#474F59" d="M129.008,18.916c0.948-1.332,0.634-3.189-0.699-4.136c-0.012-0.009-0.024-0.015-0.034-0.024l-3.438,4.833
	c0.014,0.007,0.024,0.018,0.034,0.027C126.204,20.562,128.06,20.25,129.008,18.916"/>
<polygon fill="#CCCCCC" points="84.433,9.11 83.917,12.246 80.782,12.76 83.917,13.271 84.433,16.409 84.946,13.271 88.079,12.76 
	84.946,12.246 "/>
<polygon fill="#FFFFFF" points="21.319,31.053 20.802,34.188 17.668,34.703 20.802,35.218 21.319,38.352 21.833,35.218 
	24.965,34.703 21.833,34.188 "/>
<polygon fill="#CCCCCC" points="98.126,9.441 97.858,11.069 96.231,11.337 97.858,11.606 98.126,13.235 98.394,11.606 
	100.022,11.337 98.394,11.069 "/>
<polygon fill="#CCCCCC" points="129.638,58.206 129.12,61.341 125.987,61.857 129.12,62.369 129.638,65.507 130.15,62.369 
	133.284,61.857 130.15,61.341 "/>
<polygon fill="#FFFFFF" points="112.073,77.692 111.804,79.32 110.177,79.589 111.804,79.857 112.073,81.484 112.341,79.857 
	113.97,79.589 112.341,79.32 "/>
<polygon fill="#CCCCCC" points="10.431,54.574 10.163,56.204 8.534,56.47 10.163,56.739 10.431,58.368 10.698,56.739 12.326,56.47 
	10.698,56.204 "/>
<polygon fill="#FFFFFF" points="119.729,101.503 119.212,104.639 116.081,105.153 119.212,105.667 119.729,108.804 120.243,105.667 
	123.376,105.153 120.243,104.639 "/>
<polygon fill="#FFFFFF" points="34.101,0 33.583,3.136 30.451,3.65 33.583,4.165 34.101,7.299 34.614,4.165 37.748,3.65 
	34.614,3.136 "/>
<polygon fill="#CCCCCC" points="48.303,14.249 48.037,15.878 46.408,16.145 48.037,16.413 48.303,18.043 48.573,16.413 50.2,16.145 
	48.573,15.878 "/>
</svg>
