<?xml version="1.0" encoding="utf-8"?>
<!-- Generator: Adobe Illustrator 16.0.3, SVG Export Plug-In . SVG Version: 6.00 Build 0)  -->
<!DOCTYPE svg PUBLIC "-//W3C//DTD SVG 1.1//EN" "http://www.w3.org/Graphics/SVG/1.1/DTD/svg11.dtd">
<svg version="1.1" id="img" xmlns="http://www.w3.org/2000/svg" xmlns:xlink="http://www.w3.org/1999/xlink" x="0px" y="0px"
	 width="230px" height="230px" viewBox="0 0 230 230" enable-background="new 0 0 230 230" xml:space="preserve">
<g>
	<path fill-rule="evenodd" clip-rule="evenodd" fill="#9FC4E4" d="M67.43,26.491h134.225c14.094,0,25.625,11.531,25.625,25.625
		v134.225c0,14.094-11.531,25.625-25.625,25.625H67.43c-14.094,0-25.625-11.531-25.625-25.625V52.116
		C41.805,38.022,53.336,26.491,67.43,26.491z"/>
	<g>
		<path fill="#DAEBF9" d="M180.162,144.569c1.092,0.137,2.088-0.639,2.225-1.73c0.138-1.093-0.637-2.09-1.729-2.227
			c-0.269-0.033-0.536-0.078-0.801-0.135c-2.3-0.492-4.175-1.824-5.395-3.648c-1.243-1.859-1.823-4.242-1.505-6.797
			c0.041-0.326,0.097-0.659,0.17-0.999c0.635-2.97,2.356-5.516,4.624-7.228c2.235-1.689,4.999-2.562,7.755-2.218
			c0.598,0.075,1.188,0.174,1.77,0.299c5.124,1.096,9.304,4.068,12.027,8.142c2.748,4.109,4.031,9.352,3.334,14.946
			c-0.09,0.713-0.211,1.436-0.368,2.167c-1.374,6.42-5.095,11.921-10.001,15.625c-4.873,3.68-10.91,5.58-16.955,4.826
			c-0.927-0.116-1.84-0.271-2.739-0.463c-7.947-1.7-14.432-6.312-18.659-12.635c-4.252-6.357-6.238-14.459-5.162-23.094
			c0.137-1.1,0.325-2.212,0.565-3.336c2.111-9.869,7.833-18.326,15.376-24.022c7.512-5.672,16.825-8.599,26.156-7.435
			c1.256,0.156,2.494,0.366,3.709,0.626c10.771,2.304,19.561,8.556,25.291,17.128c5.757,8.608,8.447,19.569,6.991,31.245
			c-0.185,1.486-0.438,2.988-0.763,4.503c-0.205,0.962,0.32,1.91,1.201,2.266v-32.599c-1.145-2.684-2.525-5.235-4.121-7.622
			c-6.301-9.423-15.949-16.293-27.765-18.82c-1.319-0.283-2.669-0.511-4.048-0.683c-10.393-1.295-20.732,1.94-29.048,8.218
			c-8.282,6.255-14.564,15.536-16.88,26.361c-0.264,1.228-0.47,2.454-0.622,3.674c-1.198,9.61,1.037,18.661,5.81,25.798
			c4.797,7.174,12.142,12.403,21.133,14.327c1.003,0.215,2.029,0.388,3.079,0.519c7.104,0.886,14.17-1.323,19.847-5.609
			c5.646-4.263,9.927-10.587,11.505-17.964c0.179-0.836,0.319-1.672,0.423-2.505c0.82-6.569-0.713-12.762-3.98-17.65
			c-3.293-4.925-8.333-8.514-14.502-9.834c-0.685-0.147-1.389-0.265-2.107-0.355c-3.818-0.476-7.607,0.706-10.646,3
			c-3.008,2.271-5.289,5.64-6.129,9.566c-0.095,0.444-0.17,0.891-0.226,1.338c-0.44,3.526,0.388,6.86,2.153,9.5
			c1.788,2.675,4.523,4.624,7.868,5.34C179.391,144.456,179.771,144.521,180.162,144.569z"/>
		<circle fill-rule="evenodd" clip-rule="evenodd" fill="#457096" cx="218.278" cy="104.062" r="5.455"/>
		<polygon fill="#457096" points="227.279,109.996 191.988,80.352 190.385,82.261 227.279,113.251 		"/>
		<circle fill-rule="evenodd" clip-rule="evenodd" fill="#457096" cx="191.187" cy="81.306" r="5.455"/>
		<g>
			<circle fill-rule="evenodd" clip-rule="evenodd" fill="#658CAE" cx="151.229" cy="118.494" r="7.922"/>
			<circle fill-rule="evenodd" clip-rule="evenodd" fill="#DAEBF9" cx="151.229" cy="118.494" r="5.645"/>
		</g>
		<g>
			<circle fill-rule="evenodd" clip-rule="evenodd" fill="#658CAE" cx="200.405" cy="156.176" r="7.921"/>
			<circle fill-rule="evenodd" clip-rule="evenodd" fill="#DAEBF9" cx="200.405" cy="156.175" r="5.645"/>
		</g>
		<g>
			<circle fill-rule="evenodd" clip-rule="evenodd" fill="#658CAE" cx="179.807" cy="142.416" r="7.922"/>
			<circle fill-rule="evenodd" clip-rule="evenodd" fill="#DAEBF9" cx="179.807" cy="142.417" r="5.645"/>
		</g>
		<g>
			<path fill-rule="evenodd" clip-rule="evenodd" fill="#658CAE" d="M227.279,141.861c-2.531-0.268-5.146,0.687-6.907,2.782
				c-2.813,3.351-2.379,8.348,0.972,11.161c1.717,1.443,3.868,2.032,5.936,1.812V141.861z"/>
			<path fill-rule="evenodd" clip-rule="evenodd" fill="#DAEBF9" d="M227.279,144.157c-1.877-0.281-3.854,0.391-5.164,1.951
				c-2.005,2.387-1.695,5.948,0.691,7.953c1.292,1.085,2.926,1.492,4.473,1.259V144.157z"/>
		</g>
		<g>
			<circle fill-rule="evenodd" clip-rule="evenodd" fill="#658CAE" cx="159.549" cy="160.634" r="7.922"/>
			<circle fill-rule="evenodd" clip-rule="evenodd" fill="#DAEBF9" cx="159.549" cy="160.634" r="5.645"/>
		</g>
	</g>
	<g>
		<g>
			<polygon fill-rule="evenodd" clip-rule="evenodd" fill="#4E4D4D" points="81.174,157.095 112.501,157.095 127.185,183.695 
				66.49,183.695 			"/>
			<path fill-rule="evenodd" clip-rule="evenodd" fill="#457096" d="M23.019,53.277h147.637c4.155,0,7.554,3.399,7.554,7.554v95.454
				c0,4.154-3.398,7.554-7.554,7.554H23.019c-4.153,0-7.553-3.399-7.553-7.554V60.831C15.466,56.676,18.864,53.277,23.019,53.277z"
				/>
			<g>
				<circle fill-rule="evenodd" clip-rule="evenodd" fill="#F6F5F5" cx="169.037" cy="157.163" r="0.98"/>
				<circle fill-rule="evenodd" clip-rule="evenodd" fill="#F6F5F5" cx="165.207" cy="157.163" r="0.98"/>
				<circle fill-rule="evenodd" clip-rule="evenodd" fill="#F6F5F5" cx="161.377" cy="157.163" r="0.98"/>
			</g>
			<path fill-rule="evenodd" clip-rule="evenodd" fill="#457096" d="M6.74,175.656h180.193c2.211,0,4.02,1.809,4.02,4.019l0,0
				c0,2.211-1.809,4.02-4.02,4.02H6.74c-2.21,0-4.02-1.809-4.02-4.02l0,0C2.721,177.465,4.53,175.656,6.74,175.656z"/>
			<path fill-rule="evenodd" clip-rule="evenodd" fill="#4E4D4D" d="M190.953,179.676c0,2.211-1.809,4.02-4.02,4.02H6.74
				c-2.211,0-4.02-1.809-4.02-4.02H190.953z"/>
		</g>
		<rect x="20.479" y="57.684" fill-rule="evenodd" clip-rule="evenodd" fill="#FFFFFF" width="152.716" height="92.667"/>
		<rect x="30.616" y="57.684" fill-rule="evenodd" clip-rule="evenodd" fill="#8FB7DA" width="132.442" height="8.024"/>
		<rect x="66.018" y="70.589" fill-rule="evenodd" clip-rule="evenodd" fill="#E3785A" width="61.638" height="12.223"/>
		<rect x="30.616" y="97.125" fill-rule="evenodd" clip-rule="evenodd" fill="#578FC0" width="132.443" height="33.696"/>
		<rect x="56.054" y="87.592" fill-rule="evenodd" clip-rule="evenodd" fill="#8FB7DA" width="81.567" height="5.123"/>
		<rect x="38.638" y="137.585" fill-rule="evenodd" clip-rule="evenodd" fill="#F8CF7E" width="33.256" height="12.766"/>
		<rect x="80.209" y="137.585" fill-rule="evenodd" clip-rule="evenodd" fill="#E3785A" width="33.256" height="12.766"/>
		<rect x="121.78" y="137.585" fill-rule="evenodd" clip-rule="evenodd" fill="#8FB7DA" width="33.257" height="12.766"/>
		<g>
			<path fill="#FFFFFF" d="M155.834,111.805c-0.211-0.265-0.166-0.65,0.098-0.861c0.266-0.21,0.65-0.167,0.861,0.098l1.588,1.988
				c0.014,0.018,0.027,0.036,0.039,0.055l0.002,0.003l0.016,0.025l0.012,0.021l0.003,0.005l0.011,0.022l0.006,0.014
				c0.01,0.021,0.017,0.042,0.023,0.064l0.002,0.006c0.008,0.028,0.014,0.056,0.018,0.084l0.001,0.005
				c0.003,0.021,0.005,0.042,0.005,0.063v0.014v0.007v0.014c0,0.021-0.002,0.043-0.005,0.064l-0.001,0.005
				c-0.004,0.028-0.01,0.056-0.018,0.083l-0.002,0.006c-0.006,0.021-0.014,0.042-0.023,0.064l-0.006,0.014l-0.011,0.022
				l-0.003,0.005l-0.012,0.022l-0.016,0.025l-0.002,0.002c-0.012,0.019-0.025,0.037-0.039,0.055l-1.588,1.987
				c-0.211,0.265-0.596,0.309-0.861,0.099c-0.264-0.211-0.309-0.597-0.098-0.861l1.287-1.612L155.834,111.805z"/>
			<path fill="#FFFFFF" d="M36.881,111.042c0.21-0.265,0.596-0.309,0.861-0.098s0.309,0.596,0.098,0.861l-1.287,1.612l1.287,1.612
				c0.211,0.264,0.167,0.65-0.098,0.861c-0.265,0.21-0.65,0.167-0.861-0.099l-1.587-1.987c-0.015-0.018-0.028-0.036-0.04-0.055
				l-0.002-0.002l-0.015-0.025l-0.012-0.022l-0.003-0.005l-0.011-0.022l-0.006-0.014c-0.009-0.021-0.017-0.042-0.023-0.064
				l-0.002-0.006c-0.008-0.027-0.014-0.056-0.018-0.083l0-0.005c-0.003-0.021-0.005-0.042-0.005-0.064v-0.014v-0.007v-0.014
				c0-0.021,0.002-0.042,0.005-0.063l0-0.005c0.004-0.028,0.01-0.056,0.018-0.084l0.002-0.006c0.006-0.022,0.014-0.043,0.023-0.064
				l0.006-0.014l0.011-0.022l0.003-0.005l0.012-0.021l0.015-0.025l0.002-0.003c0.012-0.019,0.025-0.037,0.04-0.055L36.881,111.042z"
				/>
		</g>
	</g>
	<g>
		<path fill-rule="evenodd" clip-rule="evenodd" fill="#E3785A" d="M140.681,70.818l-5.825,15.915l15.678-6.437l49.686-51.644
			c1.42-1.479,1.375-3.851-0.103-5.272l-4.479-4.308c-1.478-1.421-3.851-1.375-5.272,0.102L140.681,70.818z"/>
		<path fill-rule="evenodd" clip-rule="evenodd" fill="#F0948E" d="M140.68,70.818l-5.824,15.915l11.181-11.622l51.841-53.885
			l-2.239-2.154c-1.478-1.422-3.851-1.375-5.271,0.102L140.68,70.818z"/>
		<path fill-rule="evenodd" clip-rule="evenodd" fill="#CCCCCC" d="M140.681,70.818l-5.825,15.915l15.678-6.437l45.878-47.688
			c-2.901-3.927-6.188-7.039-9.853-9.478L140.681,70.818z"/>
		<path fill-rule="evenodd" clip-rule="evenodd" fill="#FFFFFF" d="M140.68,70.818l-5.824,15.915l11.181-11.622l45.865-47.674
			c-1.681-1.626-3.462-3.055-5.343-4.307L140.68,70.818z"/>
		<path fill-rule="evenodd" clip-rule="evenodd" fill="#E3785A" d="M140.681,70.818l-5.825,15.915l15.678-6.437l42.854-44.545
			c-2.881-3.987-6.169-7.096-9.853-9.478L140.681,70.818z"/>
		<path fill-rule="evenodd" clip-rule="evenodd" fill="#F0948E" d="M141.035,70.474l-5.779,15.791l11.094-11.531l42.535-44.213
			c-1.672-1.62-3.447-3.027-5.328-4.244L141.035,70.474z"/>
		<path fill-rule="evenodd" clip-rule="evenodd" fill="#CCCCCC" d="M140.68,70.818l-5.824,15.915l15.677-6.436
			c-1.286-1.796-2.788-3.542-4.496-5.186C144.327,73.468,142.525,72.034,140.68,70.818z"/>
		<path fill-rule="evenodd" clip-rule="evenodd" fill="#FFFFFF" d="M140.681,70.818l-5.825,15.915l11.181-11.622
			C144.327,73.467,142.525,72.033,140.681,70.818z"/>
		<path fill-rule="evenodd" clip-rule="evenodd" fill="#8FB7DA" d="M136.779,81.476l-1.924,5.257l5.179-2.126
			c-0.425-0.594-0.921-1.17-1.485-1.713C137.984,82.351,137.389,81.877,136.779,81.476z"/>
	</g>
</g>
</svg>
