<?xml version="1.0" encoding="utf-8"?>
<!-- Generator: Adobe Illustrator 16.0.3, SVG Export Plug-In . SVG Version: 6.00 Build 0)  -->
<!DOCTYPE svg PUBLIC "-//W3C//DTD SVG 1.1//EN" "http://www.w3.org/Graphics/SVG/1.1/DTD/svg11.dtd">
<svg version="1.1" id="Capa_1" xmlns="http://www.w3.org/2000/svg" xmlns:xlink="http://www.w3.org/1999/xlink" x="0px" y="0px"
	 width="290.816px" height="189.816px" viewBox="86.226 156.816 290.816 189.816"
	 enable-background="new 86.226 156.816 290.816 189.816" xml:space="preserve">
<path d="M302.154,341.61v-26.866h54.802c11.092,0,20.086-8.992,20.086-20.086s-8.994-20.088-20.086-20.088h-54.802v-45.692h54.802
	c11.092,0,20.086-8.993,20.086-20.087c0-11.094-8.994-20.086-20.086-20.086h-54.802v-26.868c0-2.773-2.249-5.021-5.021-5.021H238.6
	c-44.377,0-81.215,32.79-87.624,75.407h-52.75c-6.627,0-12,5.372-12,12v20c0,6.627,5.373,12,12,12h52.628
	c8.434,40.158,45.119,70.409,87.746,70.409h58.534C299.905,346.632,302.154,344.383,302.154,341.61z"/>
</svg>
