<?xml version="1.0" encoding="utf-8"?>
<!-- Generator: Adobe Illustrator 16.0.0, SVG Export Plug-In . SVG Version: 6.00 Build 0)  -->
<!DOCTYPE svg PUBLIC "-//W3C//DTD SVG 1.1//EN" "http://www.w3.org/Graphics/SVG/1.1/DTD/svg11.dtd">
<svg version="1.1" id="图层_1" xmlns="http://www.w3.org/2000/svg" xmlns:xlink="http://www.w3.org/1999/xlink" x="0px" y="0px"
	 width="22px" height="22px" viewBox="0 0 22 22" enable-background="new 0 0 22 22" xml:space="preserve">
<path fill="#086291" d="M20.641,0H1.359C0.608,0,0,0.608,0,1.359v19.282C0,21.392,0.608,22,1.359,22h19.282
	C21.392,22,22,21.392,22,20.641V1.359C22,0.608,21.392,0,20.641,0z M20.253,18.94c0,0.618-0.501,1.119-1.119,1.119H3.254
	c-0.618,0-1.119-0.5-1.119-1.119V3.06c0-0.618,0.501-1.119,1.119-1.119h15.879c0.618,0,1.119,0.5,1.119,1.119V18.94z"/>
</svg>
