<?xml version="1.0" encoding="utf-8"?>
<!-- Generator: Adobe Illustrator 16.0.0, SVG Export Plug-In . SVG Version: 6.00 Build 0)  -->
<!DOCTYPE svg PUBLIC "-//W3C//DTD SVG 1.1//EN" "http://www.w3.org/Graphics/SVG/1.1/DTD/svg11.dtd">
<svg version="1.1" id="artifact_n_node" xmlns="http://www.w3.org/2000/svg" xmlns:xlink="http://www.w3.org/1999/xlink" x="0px"
	 y="0px" width="38.549px" height="22px" viewBox="-29.171 0.483 38.549 22" enable-background="new -29.171 0.483 38.549 22"
	 xml:space="preserve">
<g>
	<circle opacity="0.7" fill="#617785" enable-background="new    " cx="2.331" cy="5.621" r="1.906"/>
	<path opacity="0.7" fill="#617785" enable-background="new    " d="M-0.046,6.378l-0.093-0.406L-3.14,6.656
		c-0.196-0.435-0.631-0.737-1.137-0.737C-4.97,5.92-5.53,6.479-5.53,7.17c0,0.693,0.56,1.251,1.251,1.251
		c0.69,0,1.251-0.559,1.251-1.251c0-0.036-0.001-0.074-0.005-0.111L-0.046,6.378z"/>
	<path opacity="0.7" fill="#617785" enable-background="new    " d="M0.451,4.038l-1.457-1.152c0.051-0.14,0.081-0.286,0.081-0.442
		c0-0.69-0.559-1.251-1.251-1.251c-0.692,0-1.249,0.56-1.249,1.251s0.559,1.251,1.249,1.251c0.386,0,0.727-0.174,0.955-0.447
		l1.413,1.119L0.451,4.038z"/>
	<path opacity="0.7" fill="#617785" enable-background="new    " d="M6.756,1.673c-0.69,0-1.25,0.557-1.25,1.25
		c0,0.176,0.036,0.342,0.101,0.494L4.11,4.203l0.194,0.371l1.533-0.805c0.227,0.25,0.556,0.404,0.918,0.404
		c0.69,0,1.251-0.559,1.251-1.25C8.007,2.23,7.445,1.673,6.756,1.673z"/>
	<path opacity="0.7" fill="#617785" enable-background="new    " d="M8.124,8.144c-0.368,0-0.694,0.157-0.924,0.41L4.38,6.698
		L4.152,7.045l2.824,1.858c-0.063,0.149-0.1,0.317-0.1,0.488c0,0.693,0.559,1.253,1.25,1.253c0.691,0,1.251-0.56,1.251-1.253
		C9.378,8.701,8.817,8.144,8.124,8.144z"/>
	<path opacity="0.7" fill="#617785" enable-background="new    " d="M0.023,11.872l1.5-4.056L1.132,7.67l-1.499,4.052
		c-0.078-0.016-0.16-0.023-0.242-0.023c-0.69,0-1.25,0.558-1.25,1.248s0.56,1.251,1.25,1.251c0.69,0,1.251-0.559,1.251-1.251
		C0.643,12.489,0.392,12.088,0.023,11.872z"/>
</g>
<g>
	<circle fill="#136AA1" enable-background="new    " cx="-15.871" cy="7.971" r="3.224"/>
	<path fill="#136AA1" enable-background="new    " d="M-19.893,9.252l-0.155-0.688l-5.079,1.156c-0.33-0.734-1.07-1.247-1.925-1.247
		c-1.172,0.001-2.119,0.951-2.119,2.118c0,1.171,0.947,2.119,2.118,2.119c1.169,0,2.116-0.948,2.116-2.119
		c0-0.062-0.003-0.124-0.009-0.188L-19.893,9.252z"/>
	<path fill="#136AA1" enable-background="new    " d="M-19.05,5.296l-2.465-1.951c0.086-0.232,0.135-0.483,0.135-0.746
		c0-1.169-0.945-2.116-2.116-2.116c-1.17,0-2.116,0.945-2.116,2.116c0,1.17,0.947,2.117,2.116,2.117c0.651,0,1.23-0.294,1.616-0.755
		l2.389,1.888L-19.05,5.296z"/>
	<path fill="#136AA1" enable-background="new    " d="M-8.382,1.29c-1.168,0-2.117,0.945-2.117,2.116
		c0,0.298,0.063,0.582,0.172,0.837l-2.532,1.331l0.328,0.626l2.594-1.362c0.386,0.42,0.939,0.685,1.555,0.685
		c1.169,0,2.116-0.947,2.116-2.117C-6.269,2.235-7.218,1.29-8.382,1.29z"/>
	<path fill="#136AA1" enable-background="new    " d="M-6.069,12.237c-0.623,0-1.176,0.269-1.564,0.692l-4.771-3.137l-0.385,0.589
		l4.779,3.141c-0.109,0.256-0.168,0.538-0.168,0.828c0,1.17,0.945,2.12,2.115,2.12s2.116-0.95,2.116-2.12
		C-3.948,13.182-4.898,12.237-6.069,12.237z"/>
	<path fill="#136AA1" enable-background="new    " d="M-19.776,18.543l2.539-6.861l-0.663-0.245l-2.535,6.854
		c-0.133-0.024-0.269-0.037-0.408-0.037c-1.169,0-2.115,0.945-2.115,2.113c0,1.167,0.945,2.117,2.115,2.117
		c1.168,0,2.117-0.947,2.117-2.117C-18.726,19.589-19.149,18.909-19.776,18.543z"/>
</g>
</svg>
