<?xml version="1.0" encoding="utf-8"?>
<!-- Generator: Adobe Illustrator 16.0.0, SVG Export Plug-In . SVG Version: 6.00 Build 0)  -->
<!DOCTYPE svg PUBLIC "-//W3C//DTD SVG 1.1//EN" "http://www.w3.org/Graphics/SVG/1.1/DTD/svg11.dtd">
<svg version="1.1" id="key_node" xmlns="http://www.w3.org/2000/svg" xmlns:xlink="http://www.w3.org/1999/xlink" x="0px" y="0px"
	 width="22px" height="22px" viewBox="5.123 -0.5 22 22" enable-background="new 5.123 -0.5 22 22" xml:space="preserve">
<g>
	<circle fill="#006699" cx="20.712" cy="6.765" r="1.462"/>
	<path fill="#006699" d="M16.123-0.5c-6.075,0-11,4.924-11,11c0,6.075,4.925,11,11,11c6.075,0,11-4.925,11-11
		C27.123,4.424,22.198-0.5,16.123-0.5z M19.569,12.144c-0.506,0.005-0.995-0.079-1.448-0.242l-2.179,2.241l-1.459,0.022l0.021,1.457
		l-1.462,0.023l0.021,1.462l-2.438,0.034l-0.035-2.437l5.06-5.205c-0.175-0.448-0.27-0.933-0.276-1.443
		c-0.036-2.286,1.794-4.168,4.081-4.199c2.286-0.031,4.167,1.797,4.2,4.084C23.685,10.231,21.855,12.111,19.569,12.144z"/>
</g>
</svg>
