<svg xmlns="http://www.w3.org/2000/svg" xmlns:xlink="http://www.w3.org/1999/xlink" version="1.1" id="v-2" width="100%" height="600"><g id="v-3" class="viewport"><g id="j_1" model-id="2497c211-c77c-4426-96b7-a1c9ebfa83c8" class="element sega Task" magnet="false" fill="#FFFFFF" stroke="none" transform="translate(117,163)"><g class="rotatable" id="v-5" transform="rotate(0,75,30)"><g class="scalable" id="v-14" transform="scale(1,1)"><rect class="body" id="v-9" width="150" height="60" fill="#3C4C53" rx="4" ry="6"></rect></g><text class="label" id="v-13" pointer-events="none" y="0.8em" display="null" xml:space="preserve" text-anchor="middle" fill="#ffffff" font-family="Open Sans, Microsoft Yahei" font-size="14px" font-weight="300" transform="translate(75,24)">受理</text><g class="inPorts"><g class="port port0" id="v-15" transform="translate(0,30)"><circle class="port-body" id="v-18" r="10" magnet="true" stroke="#ffffff" stroke-width="3" fill="#f4a915" port="in"></circle></g><g class="port port0" id="v-16" transform="translate(0,30)"><circle class="port-body" id="v-19" r="10" magnet="true" stroke="#ffffff" stroke-width="3" fill="#f4a915" port="in"></circle></g></g><g class="outPorts"><g class="port port0" id="v-17" transform="translate(150,30)"><circle class="port-body" id="v-20" r="10" magnet="true" stroke="#ffffff" stroke-width="3" fill="#f4a915" port="out"></circle></g></g></g></g><g id="j_8" model-id="0e0a1a3e-5a39-4283-8eb7-a889637f3137" class="element sega Start" magnet="false" fill="#FFFFFF" stroke="none" transform="translate(16,181)"><g class="body" id="v-105"><circle class="outter" id="v-107" r="15" stroke="#F4A915" stroke-width="2" fill="#ffffff" transform="translate(10, 10)"></circle><circle class="inner" id="v-108" r="10" fill="#F4A915" transform="translate(10, 10)"></circle><g class="outPorts"><g class="port port0" id="v-106" transform="translate(10, 10)"><circle class="port-body" id="v-109" r="10" magnet="true" transform="translate(0, 0)" fill-opacity="0" port="out"></circle></g></g></g></g><g id="j_2" model-id="b23783cc-3acf-4fbd-b112-4218270a4d0b" class="element sega End" magnet="false" fill="#FFFFFF" stroke="none" transform="translate(571,353)"><g class="body" id="v-21"><circle class="outter" id="v-23" r="15" stroke="#F4A915" stroke-width="4" fill="#ffffff" transform="translate(10, 10)"></circle><g class="inPorts"><g class="port port0" id="v-22" transform="translate(10, 10)"><circle class="port-body" id="v-24" r="10" magnet="true" transform="translate(0, 0)" fill-opacity="0" port="in"></circle></g></g></g></g><g id="j_16" model-id="6e5cce6d-cc83-4365-a6ef-087315bec6a8" class="sega Link link"><path class="connection" stroke="#F4A915" id="v-192" stroke-width="2" fill="none" d="M 36 190 43 190 S 50 190 60 190 L 80 190 S 90 190 93 190 L 96 190"></path><path class="marker-source" fill="black" stroke="black" id="v-193" transform="translate(36,190) scale(1,1) rotate(0)"></path><path class="marker-target" fill="#F4A915" stroke="#F4A915" id="v-194" d="M 10 0 L 0 5 L 10 10 z" transform="translate(106,195) scale(1,1) rotate(-180)"></path><g class="labels" id="v-196"></g><g class="marker-vertices" id="v-197"></g></g><g id="j_4" model-id="a3481adb-7c10-41f7-a369-bb072b187deb" class="element sega Task" magnet="false" fill="#FFFFFF" stroke="none" transform="translate(325,81)"><g class="rotatable" id="v-41" transform="rotate(0,75,30)"><g class="scalable" id="v-50" transform="scale(1,1)"><rect class="body" id="v-45" width="150" height="60" fill="#3C4C53" rx="4" ry="6"></rect></g><text class="label" id="v-49" pointer-events="none" y="0.8em" display="null" xml:space="preserve" text-anchor="middle" fill="#ffffff" font-family="Open Sans, Microsoft Yahei" font-size="14px" font-weight="300" transform="translate(75,24)">区局公示</text><g class="inPorts"><g class="port port0" id="v-51" transform="translate(0,30)"><circle class="port-body" id="v-54" r="10" magnet="true" stroke="#ffffff" stroke-width="3" fill="#f4a915" port="in"></circle></g><g class="port port0" id="v-52" transform="translate(0,30)"><circle class="port-body" id="v-55" r="10" magnet="true" stroke="#ffffff" stroke-width="3" fill="#f4a915" port="in"></circle></g></g><g class="outPorts"><g class="port port0" id="v-53" transform="translate(150,30)"><circle class="port-body" id="v-56" r="10" magnet="true" stroke="#ffffff" stroke-width="3" fill="#f4a915" port="out"></circle></g></g></g></g><g id="j_5" model-id="39217359-5894-44ed-86bc-01e70cd01f4d" class="element sega Task" magnet="false" fill="#FFFFFF" stroke="none" transform="translate(541,158)"><g class="rotatable" id="v-57" transform="rotate(0,75,30)"><g class="scalable" id="v-66" transform="scale(1,1)"><rect class="body" id="v-61" width="150" height="60" fill="#3C4C53" rx="4" ry="6"></rect></g><text class="label" id="v-65" pointer-events="none" y="0.8em" display="null" xml:space="preserve" text-anchor="middle" fill="#ffffff" font-family="Open Sans, Microsoft Yahei" font-size="14px" font-weight="300" transform="translate(75,24)">初审</text><g class="inPorts"><g class="port port0" id="v-67" transform="translate(0,30)"><circle class="port-body" id="v-70" r="10" magnet="true" stroke="#ffffff" stroke-width="3" fill="#f4a915" port="in"></circle></g><g class="port port0" id="v-68" transform="translate(0,30)"><circle class="port-body" id="v-71" r="10" magnet="true" stroke="#ffffff" stroke-width="3" fill="#f4a915" port="in"></circle></g></g><g class="outPorts"><g class="port port0" id="v-69" transform="translate(150,30)"><circle class="port-body" id="v-72" r="10" magnet="true" stroke="#ffffff" stroke-width="3" fill="#f4a915" port="out"></circle></g></g></g></g><g id="j_17" model-id="4fd8dee7-97be-4024-8746-d8eb3d3b7870" class="sega Link link"><path class="connection" stroke="#F4A915" id="v-203" stroke-width="2" fill="none" d="M 279 190 285 190 S 290 190 300 190 L 500 190 S 510 190 515 190 L 520 190"></path><path class="marker-source" fill="black" stroke="black" id="v-204" transform="translate(279,190) scale(1,1) rotate(0)"></path><path class="marker-target" fill="#F4A915" stroke="#F4A915" id="v-205" d="M 10 0 L 0 5 L 10 10 z" transform="translate(530,195) scale(1,1) rotate(-180)"></path><g class="labels" id="v-207"></g><g class="marker-vertices" id="v-208"></g></g><g id="j_18" model-id="cfe08318-f682-4fe2-ba9b-e8b0e75cd655" class="sega Link link"><path class="connection" stroke="#F4A915" id="v-214" stroke-width="2" fill="none" d="M 270 182 270 176 S 270 170 280 170 L 290 170 S 300 170 300 160 L 300 120 S 300 110 302 110 L 304 110"></path><path class="marker-source" fill="black" stroke="black" id="v-215" transform="translate(270,182) scale(1,1) rotate(-90)"></path><path class="marker-target" fill="#F4A915" stroke="#F4A915" id="v-216" d="M 10 0 L 0 5 L 10 10 z" transform="translate(314,115) scale(1,1) rotate(-180)"></path><g class="labels" id="v-218"></g><g class="marker-vertices" id="v-219"></g></g><g id="j_19" model-id="57050b38-734e-4f61-ad0d-5be63ccefa6e" class="sega Link link"><path class="connection" stroke="#F4A915" id="v-225" stroke-width="2" fill="none" d="M 480 123 480 132 S 480 140 490 140 L 500 140 S 510 140 510 150 L 510 180 S 510 190 515 190 L 520 190"></path><path class="marker-source" fill="black" stroke="black" id="v-226" transform="translate(480,123) scale(1,1) rotate(-270)"></path><path class="marker-target" fill="#F4A915" stroke="#F4A915" id="v-227" d="M 10 0 L 0 5 L 10 10 z" transform="translate(530,195) scale(1,1) rotate(-180)"></path><g class="labels" id="v-229"></g><g class="marker-vertices" id="v-230"></g></g><g id="j_9" model-id="a5bd417d-51bc-4e3e-bbe6-0e3139066351" class="element sega Task" magnet="false" fill="#FFFFFF" stroke="none" transform="translate(744,159)"><g class="rotatable" id="v-110" transform="rotate(0,75,30)"><g class="scalable" id="v-119" transform="scale(1,1)"><rect class="body" id="v-114" width="150" height="60" fill="#3C4C53" rx="4" ry="6"></rect></g><text class="label" id="v-118" pointer-events="none" y="0.8em" display="null" xml:space="preserve" text-anchor="middle" fill="#ffffff" font-family="Open Sans, Microsoft Yahei" font-size="14px" font-weight="300" transform="translate(75,24)">复审</text><g class="inPorts"><g class="port port0" id="v-120" transform="translate(0,30)"><circle class="port-body" id="v-123" r="10" magnet="true" stroke="#ffffff" stroke-width="3" fill="#f4a915" port="in"></circle></g><g class="port port0" id="v-121" transform="translate(0,30)"><circle class="port-body" id="v-124" r="10" magnet="true" stroke="#ffffff" stroke-width="3" fill="#f4a915" port="in"></circle></g></g><g class="outPorts"><g class="port port0" id="v-122" transform="translate(150,30)"><circle class="port-body" id="v-125" r="10" magnet="true" stroke="#ffffff" stroke-width="3" fill="#f4a915" port="out"></circle></g></g></g></g><g id="j_7" model-id="de3e0e78-8697-49ec-8e61-6f5f8fbd0e19" class="element sega Task" magnet="false" fill="#FFFFFF" stroke="none" transform="translate(951,162)"><g class="rotatable" id="v-89" transform="rotate(0,75,30)"><g class="scalable" id="v-98" transform="scale(1,1)"><rect class="body" id="v-93" width="150" height="60" fill="#3C4C53" rx="4" ry="6"></rect></g><text class="label" id="v-97" pointer-events="none" y="0.8em" display="null" xml:space="preserve" text-anchor="middle" fill="#ffffff" font-family="Open Sans, Microsoft Yahei" font-size="14px" font-weight="300" transform="translate(75,24)">终审</text><g class="inPorts"><g class="port port0" id="v-99" transform="translate(0,30)"><circle class="port-body" id="v-102" r="10" magnet="true" stroke="#ffffff" stroke-width="3" fill="#f4a915" port="in"></circle></g><g class="port port0" id="v-100" transform="translate(0,30)"><circle class="port-body" id="v-103" r="10" magnet="true" stroke="#ffffff" stroke-width="3" fill="#f4a915" port="in"></circle></g></g><g class="outPorts"><g class="port port0" id="v-101" transform="translate(150,30)"><circle class="port-body" id="v-104" r="10" magnet="true" stroke="#ffffff" stroke-width="3" fill="#f4a915" port="out"></circle></g></g></g></g><g id="j_6" model-id="3ce86c67-b75a-487f-9517-bda8aa996e1b" class="element sega Task" magnet="false" fill="#FFFFFF" stroke="none" transform="translate(95,334)"><g class="rotatable" id="v-73" transform="rotate(0,75,30)"><g class="scalable" id="v-82" transform="scale(1,1)"><rect class="body" id="v-77" width="150" height="60" fill="#3C4C53" rx="4" ry="6"></rect></g><text class="label" id="v-81" pointer-events="none" y="0.8em" display="null" xml:space="preserve" text-anchor="middle" fill="#ffffff" font-family="Open Sans, Microsoft Yahei" font-size="14px" font-weight="300" transform="translate(75,24)">市局公示</text><g class="inPorts"><g class="port port0" id="v-83" transform="translate(0,30)"><circle class="port-body" id="v-86" r="10" magnet="true" stroke="#ffffff" stroke-width="3" fill="#f4a915" port="in"></circle></g><g class="port port0" id="v-84" transform="translate(0,30)"><circle class="port-body" id="v-87" r="10" magnet="true" stroke="#ffffff" stroke-width="3" fill="#f4a915" port="in"></circle></g></g><g class="outPorts"><g class="port port0" id="v-85" transform="translate(150,30)"><circle class="port-body" id="v-88" r="10" magnet="true" stroke="#ffffff" stroke-width="3" fill="#f4a915" port="out"></circle></g></g></g></g><g id="j_3" model-id="568c54d3-7c17-4d87-a254-04a6f13ed491" class="element sega Task" magnet="false" fill="#FFFFFF" stroke="none" transform="translate(361,414)"><g class="rotatable" id="v-25" transform="rotate(0,75,30)"><g class="scalable" id="v-34" transform="scale(1,1)"><rect class="body" id="v-29" width="150" height="60" fill="#3C4C53" rx="4" ry="6"></rect></g><text class="label" id="v-33" pointer-events="none" y="0.8em" display="null" xml:space="preserve" text-anchor="middle" fill="#ffffff" font-family="Open Sans, Microsoft Yahei" font-size="14px" font-weight="300" transform="translate(75,24)">修改</text><g class="inPorts"><g class="port port0" id="v-35" transform="translate(0,30)"><circle class="port-body" id="v-38" r="10" magnet="true" stroke="#ffffff" stroke-width="3" fill="#f4a915" port="in"></circle></g><g class="port port0" id="v-36" transform="translate(0,30)"><circle class="port-body" id="v-39" r="10" magnet="true" stroke="#ffffff" stroke-width="3" fill="#f4a915" port="in"></circle></g></g><g class="outPorts"><g class="port port0" id="v-37" transform="translate(150,30)"><circle class="port-body" id="v-40" r="10" magnet="true" stroke="#ffffff" stroke-width="3" fill="#f4a915" port="out"></circle></g></g></g></g><g id="j_15" model-id="66d59c18-ad6f-4518-a100-b9d730e4b302" class="sega Link link"><path class="connection" stroke="#F4A915" id="v-181" stroke-width="2" fill="none" d="M 703 190 712 190 S 720 190 722 190 L 723 190"></path><path class="marker-source" fill="black" stroke="black" id="v-182" transform="translate(703,190) scale(1,1) rotate(0)"></path><path class="marker-target" fill="#F4A915" stroke="#F4A915" id="v-183" d="M 10 0 L 0 5 L 10 10 z" transform="translate(733,195) scale(1,1) rotate(-180)"></path><g class="labels" id="v-185"></g><g class="marker-vertices" id="v-186"></g></g><g id="j_14" model-id="8c5d9f83-c0ca-4d34-8b4a-52365b67f836" class="sega Link link"><path class="connection" stroke="#F4A915" id="v-170" stroke-width="2" fill="none" d="M 906 190 913 190 S 920 190 925 190 L 930 190"></path><path class="marker-source" fill="black" stroke="black" id="v-171" transform="translate(906,190) scale(1,1) rotate(0)"></path><path class="marker-target" fill="#F4A915" stroke="#F4A915" id="v-172" d="M 10 0 L 0 5 L 10 10 z" transform="translate(940,195) scale(1,1) rotate(-180)"></path><g class="labels" id="v-174"></g><g class="marker-vertices" id="v-175"></g></g><g id="j_13" model-id="793f3f74-345c-4cb3-b083-c73506eb170d" class="sega Link link"><path class="connection" stroke="#F4A915" id="v-159" stroke-width="2" fill="none" d="M 1113 190 1122 190 S 1130 190 1130 200 L 1130 310 S 1130 320 1120 320 L 90 320 S 80 320 80 330 L 80 350 S 80 360 75 360 L 75 360 S 70 360 72 360 L 74 360"></path><path class="marker-source" fill="black" stroke="black" id="v-160" transform="translate(1113,190) scale(1,1) rotate(0)"></path><path class="marker-target" fill="#F4A915" stroke="#F4A915" id="v-161" d="M 10 0 L 0 5 L 10 10 z" transform="translate(84,365) scale(1,1) rotate(-180)"></path><g class="labels" id="v-163"></g><g class="marker-vertices" id="v-164"></g></g><g id="j_12" model-id="c28afe57-2e5f-413d-bb77-6d8529398d9f" class="sega Link link"><path class="connection" stroke="#F4A915" id="v-148" stroke-width="2" fill="none" d="M 250 376 250 383 S 250 390 260 390 L 320 390 S 330 390 330 400 L 330 430 S 330 440 335 440 L 340 440"></path><path class="marker-source" fill="black" stroke="black" id="v-149" transform="translate(250,376) scale(1,1) rotate(-270)"></path><path class="marker-target" fill="#F4A915" stroke="#F4A915" id="v-150" d="M 10 0 L 0 5 L 10 10 z" transform="translate(350,445) scale(1,1) rotate(-180)"></path><g class="labels" id="v-152"></g><g class="marker-vertices" id="v-153"></g></g><g id="j_11" model-id="12d2872e-ee9b-444d-a2b2-fdfe55a8e8b7" class="sega Link link"><path class="connection" stroke="#F4A915" id="v-137" stroke-width="2" fill="none" d="M 257 360 264 360 S 270 360 280 360 L 550 360 S 560 360 561 360 L 561 360"></path><path class="marker-source" fill="black" stroke="black" id="v-138" transform="translate(257,360) scale(1,1) rotate(0)"></path><path class="marker-target" fill="#F4A915" stroke="#F4A915" id="v-139" d="M 10 0 L 0 5 L 10 10 z" transform="translate(571,365) scale(1,1) rotate(-180)"></path><g class="labels" id="v-141"></g><g class="marker-vertices" id="v-142"></g></g><g id="j_10" model-id="7a04db92-4488-4503-b190-ae04af5dc84a" class="sega Link link"><path class="connection" stroke="#F4A915" id="v-126" stroke-width="2" fill="none" d="M 523 440 532 440 S 540 440 550 440 L 570 440 S 580 440 580 430 L 580 400 S 580 390 580 387 L 580 383"></path><path class="marker-source" fill="black" stroke="black" id="v-127" transform="translate(523,440) scale(1,1) rotate(0)"></path><path class="marker-target" fill="#F4A915" stroke="#F4A915" id="v-128" d="M 10 0 L 0 5 L 10 10 z" transform="translate(585,373) scale(1,1) rotate(-270)"></path><g class="labels" id="v-130"></g><g class="marker-vertices" id="v-131"></g></g></g><defs id="v-4"></defs></svg>