<?xml version="1.0" encoding="utf-8"?>
<!-- Generator: Adobe Illustrator 16.0.0, SVG Export Plug-In . SVG Version: 6.00 Build 0)  -->
<!DOCTYPE svg PUBLIC "-//W3C//DTD SVG 1.1//EN" "http://www.w3.org/Graphics/SVG/1.1/DTD/svg11.dtd">
<svg version="1.1" id="图层_1" xmlns="http://www.w3.org/2000/svg" xmlns:xlink="http://www.w3.org/1999/xlink" x="0px" y="0px"
	 width="30px" height="26.17px" viewBox="-2.39 -2.085 30 26.17" enable-background="new -2.39 -2.085 30 26.17"
	 xml:space="preserve">
<g>
	<circle fill="#176699" cx="13.425" cy="6.851" r="3.809"/>
	<path fill="#176699" d="M8.672,8.363L8.488,7.55L2.487,8.917C2.098,8.049,1.223,7.443,0.212,7.443
		c-1.387,0.002-2.505,1.122-2.505,2.502c0,1.383,1.118,2.503,2.503,2.503c1.381,0,2.5-1.121,2.5-2.503
		c0-0.073-0.002-0.146-0.011-0.222L8.672,8.363z"/>
	<path fill="#176699" d="M9.669,3.688L6.753,1.382c0.104-0.277,0.162-0.571,0.162-0.881C6.915-0.88,5.798-2,4.414-2
		c-1.384,0-2.5,1.118-2.5,2.501c0,1.383,1.118,2.5,2.5,2.5c0.768,0,1.452-0.347,1.91-0.892l2.824,2.233L9.669,3.688z"/>
	<path fill="#176699" d="M22.273-1.046c-1.379,0-2.5,1.118-2.5,2.502c0,0.353,0.076,0.687,0.204,0.989l-2.994,1.57l0.387,0.74
		l3.065-1.609c0.457,0.496,1.111,0.809,1.838,0.809c1.382,0,2.502-1.117,2.502-2.5C24.772,0.071,23.652-1.046,22.273-1.046z"/>
	<path fill="#176699" d="M25.009,11.891c-0.736,0-1.39,0.319-1.847,0.82l-5.64-3.707l-0.457,0.695l5.647,3.713
		c-0.129,0.302-0.197,0.635-0.197,0.979c0,1.382,1.115,2.505,2.496,2.505c1.384,0,2.501-1.122,2.501-2.505
		C27.514,13.01,26.394,11.891,25.009,11.891z"/>
	<path fill="#176699" d="M8.81,19.344l3-8.107l-0.784-0.291L8.03,19.047C7.874,19.018,7.713,19,7.549,19
		c-1.382,0-2.5,1.119-2.5,2.499c0,1.381,1.119,2.501,2.5,2.501c1.38,0,2.5-1.117,2.5-2.501C10.05,20.579,9.549,19.776,8.81,19.344z"
		/>
</g>
</svg>
